<?xml version="1.0" encoding="utf-8"?>
<!-- Generator: Adobe Illustrator 24.1.1, SVG Export Plug-In . SVG Version: 6.00 Build 0)  -->
<svg version="1.1" id="Layer_1" xmlns="http://www.w3.org/2000/svg" xmlns:xlink="http://www.w3.org/1999/xlink" x="0px" y="0px"
	 viewBox="0 0 512 512" style="enable-background:new 0 0 512 512;" xml:space="preserve">
<style type="text/css">
	.st0{fill:#000066;}
	.st1{fill:#FFFFFF;}
	.st2{fill:#CC0000;}
	.st3{fill-rule:evenodd;clip-rule:evenodd;fill:#FFFFFF;}
</style>
<g>
	<rect y="64" class="st0" width="512" height="384"/>
	<path class="st1" d="M0,64v24.5l298.1,194.4h37.5v-24.5L37.5,64H0z M335.6,64v24.5L37.5,282.9H0v-24.5L298.1,64H335.6z"/>
	<path class="st1" d="M139.8,64v218.9h55.9V64H139.8z M0,137v73h335.6v-73H0z"/>
	<path class="st2" d="M0,151.6v43.8h335.6v-43.8H0z M151,64v218.9h33.6V64H151z M0,282.9l111.9-73h25L25,282.9H0z M0,64l111.9,73
		h-25L0,80.3V64z M198.7,137l111.9-73h25l-111.9,73H198.7z M335.6,282.9l-111.9-73h25l86.8,56.6V282.9z"/>
	<path class="st3" d="M100.4,397.2l-22-1.9l19-11.3l-12.2-18.4l20.6,7.8l6.8-21l6.8,21l20.6-7.8L127.8,384l19,11.3l-22,1.9l3,21.9
		l-15.2-16l-15.2,16 M393.7,420.6l-15.5-1.3l13.4-7.9l-8.6-12.9l14.5,5.5l4.8-14.8l4.8,14.8l14.5-5.5l-8.6,12.9l13.4,7.9l-15.5,1.3
		l2.1,15.4l-10.7-11.3l-10.7,11.3 M393.7,190.3l-15.5-1.3l13.4-7.9l-8.6-12.9l14.5,5.5l4.8-14.8l4.8,14.8l14.5-5.5l-8.6,12.9
		l13.4,7.9l-15.5,1.3l2.1,15.4l-10.7-11.3l-10.7,11.3 M307.4,283.9l-15.5-1.3l13.4-7.9l-8.6-12.9l14.5,5.5l4.8-14.8l4.8,14.8
		l14.5-5.5l-8.6,12.9l13.4,7.9l-15.5,1.3l2.1,15.4L316,288l-10.7,11.3 M470.4,260.8l-15.5-1.3l13.4-7.9l-8.6-12.9l14.5,5.5l4.7-14.8
		l4.8,14.8l14.5-5.5l-8.6,12.9l13.4,7.9l-15.5,1.3l2.1,15.4L479,265l-10.7,11.3 M450.5,308.6l-7.6,6.4l2.4,9.7l-8.5-5.2l-8.5,5.2
		l2.4-9.7l-7.6-6.4l9.9-0.7l3.8-9.2l3.8,9.2"/>
</g>
</svg>
