<?xml version="1.0" encoding="UTF-8" standalone="no"?>
<!-- Created with Sodipodi ("http://www.sodipodi.com/") -->
<svg xmlns:inkscape="http://www.inkscape.org/namespaces/inkscape" xmlns:rdf="http://www.w3.org/1999/02/22-rdf-syntax-ns#" xmlns="http://www.w3.org/2000/svg" xmlns:cc="http://creativecommons.org/ns#" xmlns:dc="http://purl.org/dc/elements/1.1/" xmlns:sodipodi="http://sodipodi.sourceforge.net/DTD/sodipodi-0.dtd" xmlns:svg="http://www.w3.org/2000/svg" xmlns:ns1="http://sozi.baierouge.fr" id="svg3473" sodipodi:docname="_svgclean2.svg" viewBox="0 0 992.13 496.06" sodipodi:version="0.32" version="1.1" inkscape:version="0.48.3.1 r9886" xmlns:xlink="http://www.w3.org/1999/xlink">
  <sodipodi:namedview id="base" inkscape:window-width="674" inkscape:window-x="0" inkscape:window-y="0" snaptogrid="false" inkscape:window-maximized="0" inkscape:zoom="0.69043651" showgrid="true" inkscape:current-layer="svg3473" inkscape:cx="396.85039" inkscape:cy="-357.87699" inkscape:window-height="645"/>
  <rect id="rect3478" style="fill-rule:evenodd;stroke-width:1pt;fill:#002170" sodipodi:fill-cmyk="(1 0.698276 0 0.560345)" height="496.06" width="992.13" y="0" x="0"/>
  <rect id="rect3477" style="fill-rule:evenodd;stroke-width:1pt;fill:#ffb20d" sodipodi:fill-cmyk="(0 0.301724 0.948276 0)" height="42.42" width="992.13" y="226.82" x="0"/>
  <polygon id="polygon3483" style="fill-rule:evenodd;stroke-width:1pt;fill:#ffffff" sodipodi:type="star" sodipodi:sides="12" sodipodi:r1="98.709053" sodipodi:r2="49.354527" sodipodi:arg1="1.1254642" sodipodi:arg2="1.3872635" transform="matrix(.8542 -.080352 .080352 .8542 -141.92 91.912)" inkscape:randomized="0" d="m 467.71652,433.18173 -33.51227,-40.5561 -16.72515,49.88125 -8.74443,-51.87875 -39.42503,34.83586 18.36648,-49.30053 -51.56101,10.45622 40.55611,-33.51227 -49.88126,-16.72515 51.87875,-8.74442 -34.83586,-39.42503 49.30053,18.36648 -10.45622,-51.56101 33.51227,40.55611 16.72515,-49.88126 8.74442,51.87875 39.42504,-34.83586 -18.36649,49.30053 51.56102,-10.45622 -40.55611,33.51227 49.88126,16.72515 -51.87876,8.74442 34.83586,39.42504 -49.30053,-18.36649 z" sodipodi:cy="344.10001" sodipodi:cx="425.19684" inkscape:rounded="0" inkscape:flatsided="false" points="467.72 433.18 434.2 392.63 417.48 442.51 408.74 390.63 369.31 425.46 387.68 376.16 336.12 386.62 376.67 353.11 326.79 336.38 378.67 327.64 343.83 288.21 393.13 306.58 382.68 255.02 416.19 295.57 432.92 245.69 441.66 297.57 481.08 262.74 462.72 312.04 514.28 301.58 473.72 335.09 523.6 351.82 471.72 360.56 506.56 399.99 457.26 381.62"/>
  <metadata id="metadata7">
    <rdf:RDF>
      <cc:Work>
        <dc:format>image/svg+xml</dc:format>
        <dc:type rdf:resource="http://purl.org/dc/dcmitype/StillImage"/>
        <cc:license rdf:resource="http://creativecommons.org/licenses/publicdomain/"/>
        <dc:publisher>
          <cc:Agent rdf:about="http://openclipart.org/">
            <dc:title>Openclipart</dc:title>
          </cc:Agent>
        </dc:publisher>
      </cc:Work>
      <cc:License rdf:about="http://creativecommons.org/licenses/publicdomain/">
        <cc:permits rdf:resource="http://creativecommons.org/ns#Reproduction"/>
        <cc:permits rdf:resource="http://creativecommons.org/ns#Distribution"/>
        <cc:permits rdf:resource="http://creativecommons.org/ns#DerivativeWorks"/>
      </cc:License>
    </rdf:RDF>
  </metadata>
</svg>
