<?xml version="1.0" encoding="UTF-8" standalone="no"?>
<!-- Created with Sodipodi ("http://www.sodipodi.com/") -->
<svg xmlns:inkscape="http://www.inkscape.org/namespaces/inkscape" xmlns:rdf="http://www.w3.org/1999/02/22-rdf-syntax-ns#" xmlns="http://www.w3.org/2000/svg" xmlns:cc="http://creativecommons.org/ns#" xmlns:dc="http://purl.org/dc/elements/1.1/" xmlns:sodipodi="http://sodipodi.sourceforge.net/DTD/sodipodi-0.dtd" xmlns:svg="http://www.w3.org/2000/svg" xmlns:ns1="http://sozi.baierouge.fr" id="svg2498" inkscape:version="0.48.3.1 r9886" viewBox="0 0 992.13 496.06" sodipodi:version="0.33pre" version="1.1" sodipodi:docname="_svgclean2.svg" xmlns:xlink="http://www.w3.org/1999/xlink">
  <sodipodi:namedview id="base" inkscape:window-x="0" inkscape:window-y="0" snaptogrid="false" inkscape:window-maximized="0" inkscape:zoom="0.22425739" inkscape:window-height="645" showgrid="true" inkscape:current-layer="svg2498" inkscape:cx="372.0548" inkscape:cy="-30.121091" inkscape:window-width="674"/>
  <rect id="rect1310" style="fill-rule:evenodd;stroke-width:1pt;fill:#ffffff" height="248.1" width="499.55" y="0" x=".020809"/>
  <path id="path549" inkscape:connector-curvature="0" sodipodi:nodetypes="ccccc" style="fill:#cc0000" d="m0.02081 0.0003312-0.02081 18.621l119.21 61.253 44.86 1.3-164.05-81.174z"/>
  <path id="path551" inkscape:connector-curvature="0" sodipodi:nodetypes="cccc" style="fill:#000066" d="m51.062 0.0003312 144.53 75.491v-75.491l-144.53 0.0006624z"/>
  <path id="path552" style="fill:#cc0000" inkscape:connector-curvature="0" d="m214.87 0.0003312v96.372h-214.85l0.00081 55.068h214.85v96.37h66.1v-96.37h214.85v-55.068h-214.85v-96.372l-66.1 0.0003312z"/>
  <path id="path554" inkscape:connector-curvature="0" sodipodi:nodetypes="cccc" style="fill:#000066" d="m300.25 0.0003312v71.132l141.39-70.581-141.39-0.55067z"/>
  <path id="path555" inkscape:connector-curvature="0" sodipodi:nodetypes="ccccc" style="fill:#cc0000" d="m304.72 78.887 39.76-0.32 154.48-78.016-40.99 0.6682-153.25 77.668z"/>
  <path id="path700" inkscape:connector-curvature="0" sodipodi:nodetypes="cccc" style="fill:#000066" d="m0.02081 167.5v52.78l99.159-52.22-99.159-0.56z"/>
  <path id="path701" inkscape:connector-curvature="0" sodipodi:nodetypes="ccccccccc" style="fill:#cc0000" d="m381.86 169.68-41.33-0.32 155.81 77.58-1.02-17.75-113.46-59.51zm-343.12 78.57 146.11-76.71-38.38 0.26-146.45 76.34"/>
  <path id="path556" inkscape:connector-curvature="0" sodipodi:nodetypes="cccccccccccccccccccccc" style="fill:#000066" d="m497.91 21.795-118 58.515 116.43 0.436v87.194h-99.16l98.24 53.23 1.45 27.08-52.48-0.63-143.61-70.5v71.13h-104.67v-71.13l-134.72 70.94-60.843 0.19-0.00049 247.81h991.58v-495.62l-493.18-0.43967m-498.41 27.971-0.52326 51.467 104.39 1.308-103.86-52.775z"/>
  <g id="g3304" style="fill:#ffd900" transform="translate(.007555)">
    <rect id="rect3302" style="fill-rule:evenodd;stroke-width:1pt;fill:#ffd900" height="496.06" width="496.06" y="0" x="496.06"/>
    <rect id="rect3303" style="fill-rule:evenodd;stroke-width:1pt;fill:#ffd900" height="248.03" width="523.49" y="248.03" x="0"/>
  </g>
  <g id="g3330" transform="translate(7.6433 -229.39)">
    <path id="path3329" sodipodi:rx="42.766876" sodipodi:ry="42.766876" style="fill-rule:evenodd;fill:#000067" sodipodi:type="arc" d="m284.27 354.68c0 23.619-19.147 42.767-42.767 42.767-23.619 0-42.767-19.147-42.767-42.767s19.147-42.767 42.767-42.767c23.619 0 42.767 19.147 42.767 42.767z" transform="translate(-1.0063,-1.5259e-5)" sodipodi:cy="354.68073" sodipodi:cx="241.50708"/>
    <polygon id="polygon3317" style="fill-rule:evenodd;stroke-width:1pt;fill:#fff40d" points="498.45 365.81 441.12 324.21 511.95 324.28 533.78 256.9 555.61 324.28 626.44 324.23 569.1 365.81 591.04 433.16 533.77 391.48 476.5 433.15" transform="matrix(.37676 0 0 .36496 39.671 225.36)"/>
    <polygon id="polygon3325" style="fill-rule:evenodd;stroke-width:1pt;fill:#fff40d" points="498.45 365.81 441.12 324.21 511.95 324.28 533.78 256.9 555.61 324.28 626.44 324.23 569.1 365.81 591.04 433.16 533.77 391.48 476.5 433.15" transform="matrix(.18672 0 0 .17086 285.51 292.33)"/>
    <polygon id="polygon3326" style="fill-rule:evenodd;stroke-width:1pt;fill:#fff40d" points="498.45 365.81 441.12 324.21 511.95 324.28 533.78 256.9 555.61 324.28 626.44 324.23 569.1 365.81 591.04 433.16 533.77 391.48 476.5 433.15" transform="matrix(.18672 0 0 .17086 140.83 377.87)"/>
    <polygon id="polygon3327" style="fill-rule:evenodd;stroke-width:1pt;fill:#fff40d" points="498.45 365.81 441.12 324.21 511.95 324.28 533.78 256.9 555.61 324.28 626.44 324.23 569.1 365.81 591.04 433.16 533.77 391.48 476.5 433.15" transform="matrix(.18672 0 0 .17086 140.83 210.82)"/>
    <polygon id="polygon3328" style="fill-rule:evenodd;stroke-width:1pt;fill:#fff40d" points="498.45 365.81 441.12 324.21 511.95 324.28 533.78 256.9 555.61 324.28 626.44 324.23 569.1 365.81 591.04 433.16 533.77 391.48 476.5 433.15" transform="matrix(.18672 0 0 .17086 -4.2973 292.33)"/>
  </g>
  <metadata id="metadata23">
    <rdf:RDF>
      <cc:Work>
        <dc:format>image/svg+xml</dc:format>
        <dc:type rdf:resource="http://purl.org/dc/dcmitype/StillImage"/>
        <cc:license rdf:resource="http://creativecommons.org/licenses/publicdomain/"/>
        <dc:publisher>
          <cc:Agent rdf:about="http://openclipart.org/">
            <dc:title>Openclipart</dc:title>
          </cc:Agent>
        </dc:publisher>
      </cc:Work>
      <cc:License rdf:about="http://creativecommons.org/licenses/publicdomain/">
        <cc:permits rdf:resource="http://creativecommons.org/ns#Reproduction"/>
        <cc:permits rdf:resource="http://creativecommons.org/ns#Distribution"/>
        <cc:permits rdf:resource="http://creativecommons.org/ns#DerivativeWorks"/>
      </cc:License>
    </rdf:RDF>
  </metadata>
</svg>
