<?xml version="1.0" encoding="UTF-8" standalone="no"?>
<!-- Created with Sodipodi ("http://www.sodipodi.com/") -->
<svg xmlns:inkscape="http://www.inkscape.org/namespaces/inkscape" xmlns:rdf="http://www.w3.org/1999/02/22-rdf-syntax-ns#" xmlns="http://www.w3.org/2000/svg" xmlns:cc="http://creativecommons.org/ns#" xmlns:dc="http://purl.org/dc/elements/1.1/" xmlns:sodipodi="http://sodipodi.sourceforge.net/DTD/sodipodi-0.dtd" xmlns:svg="http://www.w3.org/2000/svg" xmlns:ns1="http://sozi.baierouge.fr" id="svg548" inkscape:version="0.48.3.1 r9886" viewBox="0 0 992.16 496.06" sodipodi:version="0.33pre" version="1.1" sodipodi:docname="_svgclean2.svg" xmlns:xlink="http://www.w3.org/1999/xlink">
  <sodipodi:namedview id="base" inkscape:window-x="0" inkscape:window-y="0" snaptogrid="true" inkscape:window-maximized="0" inkscape:zoom="0.22425739" inkscape:window-height="645" showgrid="true" inkscape:current-layer="svg548" inkscape:cx="372.04724" inkscape:cy="-30.116409" inkscape:window-width="674"/>
  <path id="path1338" inkscape:connector-curvature="0" sodipodi:nodetypes="cccc" style="fill-rule:evenodd;stroke-width:1pt;fill:#0000d6" d="m0.000063477 491.39 956.69-491.39-956.69 0.00019607 0.00012695 491.39z"/>
  <path id="path552" inkscape:connector-curvature="0" sodipodi:nodetypes="cccc" style="fill-rule:evenodd;stroke-width:1pt;fill:#006000" d="m992.13 0-965.8 496.06h965.8v-496.06z"/>
  <path id="path558" inkscape:connector-curvature="0" sodipodi:nodetypes="ccccccc" style="fill-rule:evenodd;stroke-width:1pt;fill:#ffcc00" d="m992.16 0.000053406h-53.16l-939 470.25v25.817h53.15l939-469.34v-26.73z"/>
  <polygon id="polygon1350" style="fill-rule:evenodd;stroke-width:1pt;fill:#ffffff" points="498.45 365.81 441.12 324.21 511.95 324.28 533.78 256.9 555.61 324.28 626.44 324.23 569.1 365.81 591.04 433.16 533.77 391.48 476.5 433.15" transform="matrix(.52623 0 0 .49524 -211.72 -118.39)"/>
  <polygon id="polygon1351" style="fill-rule:evenodd;stroke-width:1pt;fill:#ffffff" points="498.45 365.81 441.12 324.21 511.95 324.28 533.78 256.9 555.61 324.28 626.44 324.23 569.1 365.81 591.04 433.16 533.77 391.48 476.5 433.15" transform="matrix(.52623 0 0 .49524 -26.526 -118.39)"/>
  <polygon id="polygon1352" style="fill-rule:evenodd;stroke-width:1pt;fill:#ffffff" points="498.45 365.81 441.12 324.21 511.95 324.28 533.78 256.9 555.61 324.28 626.44 324.23 569.1 365.81 591.04 433.16 533.77 391.48 476.5 433.15" transform="matrix(.52623 0 0 .49524 -26.526 21.596)"/>
  <polygon id="polygon1353" style="fill-rule:evenodd;stroke-width:1pt;fill:#ffffff" points="498.45 365.81 441.12 324.21 511.95 324.28 533.78 256.9 555.61 324.28 626.44 324.23 569.1 365.81 591.04 433.16 533.77 391.48 476.5 433.15" transform="matrix(.52623 0 0 .49524 -118.58 -47.579)"/>
  <polygon id="polygon1354" style="fill-rule:evenodd;stroke-width:1pt;fill:#ffffff" points="498.45 365.81 441.12 324.21 511.95 324.28 533.78 256.9 555.61 324.28 626.44 324.23 569.1 365.81 591.04 433.16 533.77 391.48 476.5 433.15" transform="matrix(.52623 0 0 .49524 -211.72 21.596)"/>
  <metadata id="metadata12">
    <rdf:RDF>
      <cc:Work>
        <dc:format>image/svg+xml</dc:format>
        <dc:type rdf:resource="http://purl.org/dc/dcmitype/StillImage"/>
        <cc:license rdf:resource="http://creativecommons.org/licenses/publicdomain/"/>
        <dc:publisher>
          <cc:Agent rdf:about="http://openclipart.org/">
            <dc:title>Openclipart</dc:title>
          </cc:Agent>
        </dc:publisher>
      </cc:Work>
      <cc:License rdf:about="http://creativecommons.org/licenses/publicdomain/">
        <cc:permits rdf:resource="http://creativecommons.org/ns#Reproduction"/>
        <cc:permits rdf:resource="http://creativecommons.org/ns#Distribution"/>
        <cc:permits rdf:resource="http://creativecommons.org/ns#DerivativeWorks"/>
      </cc:License>
    </rdf:RDF>
  </metadata>
</svg>
