<?xml version="1.0" encoding="UTF-8" standalone="no"?>
<!-- Created with Sodipodi ("http://www.sodipodi.com/") -->
<svg xmlns:inkscape="http://www.inkscape.org/namespaces/inkscape" xmlns:rdf="http://www.w3.org/1999/02/22-rdf-syntax-ns#" xmlns="http://www.w3.org/2000/svg" xmlns:cc="http://creativecommons.org/ns#" xmlns:dc="http://purl.org/dc/elements/1.1/" xmlns:sodipodi="http://sodipodi.sourceforge.net/DTD/sodipodi-0.dtd" xmlns:svg="http://www.w3.org/2000/svg" xmlns:ns1="http://sozi.baierouge.fr" id="svg548" inkscape:version="0.48.3.1 r9886" viewBox="0 0 744.09 496.06" sodipodi:version="0.32" version="1.1" sodipodi:docname="_svgclean2.svg" xmlns:xlink="http://www.w3.org/1999/xlink">
  <sodipodi:namedview id="base" inkscape:window-x="0" inkscape:window-y="0" snaptogrid="true" inkscape:window-maximized="0" inkscape:zoom="0.22425739" inkscape:window-height="645" showgrid="true" inkscape:current-layer="svg548" inkscape:cx="372.04724" inkscape:cy="-30.12089" inkscape:window-width="674">
    <sodipodi:guide id="guide3058" position="56.5,-556.30198" orientation="vertical"/>
    <sodipodi:guide id="guide3059" position="144.50001,-556.30198" orientation="vertical"/>
    <inkscape:grid id="GridFromPre046Settings" opacity=".18431" color="#3f3fff" originy="-157.00078mm" originx="0mm" empspacing="5" spacingy="0.5mm" spacingx="0.5mm" empopacity="0.38" type="xygrid" empcolor="#3f3fff"/>
  </sodipodi:namedview>
  <rect id="rect1280" style="fill-rule:evenodd;stroke-width:1pt;fill:#004e00" height="496.06" width="744.09" y=".00021077" x="0"/>
  <g id="g1418" transform="translate(0 0.000007)">
    <path id="path737" inkscape:connector-curvature="0" style="fill-rule:evenodd;stroke-width:1pt;fill:#ffef00" transform="matrix(.96528 0 0 1.1242 -91.267 -289.56)" d="m356.1 405.71h14.18"/>
    <path id="path575" style="fill-rule:evenodd;stroke-width:1pt;fill:#ffffff" d="m154.29-5.5797c-51.64 4.8457-87.232 50.915-88.113 86.252-2.403 33.898 20.955 74.868 74.793 93.588-71.273-9.92-108.97-46.26-107.92-94.872 5.691-58.166 75.96-97.496 121.24-84.968z" sodipodi:nodetypes="csccc" inkscape:connector-curvature="0" transform="matrix(-.4937 -.3009 .31724 -.51674 333.06 176.76)"/>
    <polygon id="polygon570" style="fill-rule:evenodd;stroke-width:1pt;fill:#feffff" sodipodi:type="star" sodipodi:sides="5" sodipodi:r1="16.944826" sodipodi:r2="6.7779307" sodipodi:arg1="0.93428808" sodipodi:arg2="1.5626066" transform="matrix(.44846 0 0 .46139 213.66 16.708)" inkscape:randomized="0" d="m 205.58449,128.73621 -10.01635,-6.84893 -9.90282,7.01206 3.41849,-11.64254 -9.72901,-7.2513 12.12909,-0.34657 3.88997,-11.493607 4.0777,11.428357 12.13314,0.14786 -9.60893,7.40967 z" sodipodi:cy="115.10958" sodipodi:cx="195.51263" inkscape:rounded="0" inkscape:flatsided="false" points="205.58 128.74 195.57 121.89 185.66 128.9 189.08 117.26 179.36 110.01 191.48 109.66 195.37 98.165 199.45 109.59 211.58 109.74 201.98 117.15"/>
    <polygon id="polygon1529" style="fill-rule:evenodd;stroke-width:1pt;fill:#feffff" sodipodi:type="star" sodipodi:sides="5" sodipodi:r1="16.944826" sodipodi:r2="6.7779307" sodipodi:arg1="0.93428808" sodipodi:arg2="1.5626066" transform="matrix(.44846 0 0 .46139 186.81 50.369)" inkscape:randomized="0" d="m 205.58449,128.73621 -10.01635,-6.84893 -9.90282,7.01206 3.41849,-11.64254 -9.72901,-7.2513 12.12909,-0.34657 3.88997,-11.493607 4.0777,11.428357 12.13314,0.14786 -9.60893,7.40967 z" sodipodi:cy="115.10958" sodipodi:cx="195.51263" inkscape:rounded="0" inkscape:flatsided="false" points="205.58 128.74 195.57 121.89 185.66 128.9 189.08 117.26 179.36 110.01 191.48 109.66 195.37 98.165 199.45 109.59 211.58 109.74 201.98 117.15"/>
    <polygon id="polygon1530" style="fill-rule:evenodd;stroke-width:1pt;fill:#feffff" sodipodi:type="star" sodipodi:sides="5" sodipodi:r1="16.944826" sodipodi:r2="6.7779307" sodipodi:arg1="0.93428808" sodipodi:arg2="1.5626066" transform="matrix(.44846 0 0 .46139 188.58 23.802)" inkscape:randomized="0" d="m 205.58449,128.73621 -10.01635,-6.84893 -9.90282,7.01206 3.41849,-11.64254 -9.72901,-7.2513 12.12909,-0.34657 3.88997,-11.493607 4.0777,11.428357 12.13314,0.14786 -9.60893,7.40967 z" sodipodi:cy="115.10958" sodipodi:cx="195.51263" inkscape:rounded="0" inkscape:flatsided="false" points="205.58 128.74 195.57 121.89 185.66 128.9 189.08 117.26 179.36 110.01 191.48 109.66 195.37 98.165 199.45 109.59 211.58 109.74 201.98 117.15"/>
    <polygon id="polygon1531" style="fill-rule:evenodd;stroke-width:1pt;fill:#feffff" sodipodi:type="star" sodipodi:sides="5" sodipodi:r1="16.944826" sodipodi:r2="6.7779307" sodipodi:arg1="0.93428808" sodipodi:arg2="1.5626066" transform="matrix(.44846 0 0 .46139 188.58 -2.7804)" inkscape:randomized="0" d="m 205.58449,128.73621 -10.01635,-6.84893 -9.90282,7.01206 3.41849,-11.64254 -9.72901,-7.2513 12.12909,-0.34657 3.88997,-11.493607 4.0777,11.428357 12.13314,0.14786 -9.60893,7.40967 z" sodipodi:cy="115.10958" sodipodi:cx="195.51263" inkscape:rounded="0" inkscape:flatsided="false" points="205.58 128.74 195.57 121.89 185.66 128.9 189.08 117.26 179.36 110.01 191.48 109.66 195.37 98.165 199.45 109.59 211.58 109.74 201.98 117.15"/>
    <polygon id="polygon1532" style="fill-rule:evenodd;stroke-width:1pt;fill:#feffff" sodipodi:type="star" sodipodi:sides="5" sodipodi:r1="16.944826" sodipodi:r2="6.7779307" sodipodi:arg1="0.93428808" sodipodi:arg2="1.5626066" transform="matrix(.44846 0 0 .46139 158.74 30.888)" inkscape:randomized="0" d="m 205.58449,128.73621 -10.01635,-6.84893 -9.90282,7.01206 3.41849,-11.64254 -9.72901,-7.2513 12.12909,-0.34657 3.88997,-11.493607 4.0777,11.428357 12.13314,0.14786 -9.60893,7.40967 z" sodipodi:cy="115.10958" sodipodi:cx="195.51263" inkscape:rounded="0" inkscape:flatsided="false" points="205.58 128.74 195.57 121.89 185.66 128.9 189.08 117.26 179.36 110.01 191.48 109.66 195.37 98.165 199.45 109.59 211.58 109.74 201.98 117.15"/>
  </g>
  <g id="g3186" transform="translate(0 0.000007)">
    <rect id="rect1002" style="fill-rule:evenodd;stroke-width:1pt;fill:#980000" height="496.06" width="159.45" y="-0.000007" x="46.063"/>
    <g id="g1201" style="fill:#e69900" transform="matrix(.375 0 0 .5 -54.257 -146.16)">
      <path id="path557" style="fill-rule:evenodd;fill:#e69900" d="m265.89 605.9v-7.08l17.57-17.72-3.54-3.54 10.63-10.63-3.54-3.54-7.09 7.08-3.54-3.54 24.8-24.8 3.54 3.54-3.54 3.54 7.3 7.16 17.5-17.79-17.79-17.24-7.01 6.61 3.54 3.55-3.54 3.54-24.8-24.8 3.54-3.55 7.09 7.09 3.54-3.54-10.63-10.63 3.54-3.55-17.57-17.71v-7.09l24.66 24.8-3.54 3.55 10.63 10.63-7.09 7.08 7.09 7.09 10.63-10.63 24.94 25.22-24.94 24.39-10.63-10.63-7.09 7.08 7.09 7.09-10.63 10.63 3.54 3.54-24.66 24.8z" sodipodi:nodetypes="cccccccccccccccccccccccccccccccccccccccc" inkscape:connector-curvature="0" transform="translate(1.6319,-54.921)"/>
      <path id="path559" style="fill-rule:evenodd;fill:#e69900" d="m269.29 517.32 3.55 7.09v10.63h10.62l7.09 3.54-7.09 3.55h-10.62v10.63l-3.55 7.08v-42.52z" sodipodi:nodetypes="cccccccccc" inkscape:connector-curvature="0" transform="translate(-1.7713,-54.921)"/>
    </g>
    <g id="g1204" style="fill:#e69900" transform="matrix(.375 0 0 .5 -54.257 -61.121)">
      <path id="path1205" style="fill-rule:evenodd;fill:#e69900" d="m265.89 605.9v-7.08l17.57-17.72-3.54-3.54 10.63-10.63-3.54-3.54-7.09 7.08-3.54-3.54 24.8-24.8 3.54 3.54-3.54 3.54 7.3 7.16 17.5-17.79-17.79-17.24-7.01 6.61 3.54 3.55-3.54 3.54-24.8-24.8 3.54-3.55 7.09 7.09 3.54-3.54-10.63-10.63 3.54-3.55-17.57-17.71v-7.09l24.66 24.8-3.54 3.55 10.63 10.63-7.09 7.08 7.09 7.09 10.63-10.63 24.94 25.22-24.94 24.39-10.63-10.63-7.09 7.08 7.09 7.09-10.63 10.63 3.54 3.54-24.66 24.8z" sodipodi:nodetypes="cccccccccccccccccccccccccccccccccccccccc" inkscape:connector-curvature="0" transform="translate(1.6319,-54.921)"/>
      <path id="path1206" style="fill-rule:evenodd;fill:#e69900" d="m269.29 517.32 3.55 7.09v10.63h10.62l7.09 3.54-7.09 3.55h-10.62v10.63l-3.55 7.08v-42.52z" sodipodi:nodetypes="cccccccccc" inkscape:connector-curvature="0" transform="translate(-1.7713,-54.921)"/>
    </g>
    <g id="g1207" style="fill:#e69900" transform="matrix(.375 0 0 .5 -54.256 23.919)">
      <path id="path1208" style="fill-rule:evenodd;fill:#e69900" d="m265.89 605.9v-7.08l17.57-17.72-3.54-3.54 10.63-10.63-3.54-3.54-7.09 7.08-3.54-3.54 24.8-24.8 3.54 3.54-3.54 3.54 7.3 7.16 17.5-17.79-17.79-17.24-7.01 6.61 3.54 3.55-3.54 3.54-24.8-24.8 3.54-3.55 7.09 7.09 3.54-3.54-10.63-10.63 3.54-3.55-17.57-17.71v-7.09l24.66 24.8-3.54 3.55 10.63 10.63-7.09 7.08 7.09 7.09 10.63-10.63 24.94 25.22-24.94 24.39-10.63-10.63-7.09 7.08 7.09 7.09-10.63 10.63 3.54 3.54-24.66 24.8z" sodipodi:nodetypes="cccccccccccccccccccccccccccccccccccccccc" inkscape:connector-curvature="0" transform="translate(1.6319,-54.921)"/>
      <path id="path1209" style="fill-rule:evenodd;fill:#e69900" d="m269.29 517.32 3.55 7.09v10.63h10.62l7.09 3.54-7.09 3.55h-10.62v10.63l-3.55 7.08v-42.52z" sodipodi:nodetypes="cccccccccc" inkscape:connector-curvature="0" transform="translate(-1.7713,-54.921)"/>
    </g>
    <g id="g1210" style="fill:#e69900" transform="matrix(.375 0 0 .5 -54.256 103.64)">
      <path id="path1211" style="fill-rule:evenodd;fill:#e69900" d="m265.89 605.9v-7.08l17.57-17.72-3.54-3.54 10.63-10.63-3.54-3.54-7.09 7.08-3.54-3.54 24.8-24.8 3.54 3.54-3.54 3.54 7.3 7.16 17.5-17.79-17.79-17.24-7.01 6.61 3.54 3.55-3.54 3.54-24.8-24.8 3.54-3.55 7.09 7.09 3.54-3.54-10.63-10.63 3.54-3.55-17.57-17.71v-7.09l24.66 24.8-3.54 3.55 10.63 10.63-7.09 7.08 7.09 7.09 10.63-10.63 24.94 25.22-24.94 24.39-10.63-10.63-7.09 7.08 7.09 7.09-10.63 10.63 3.54 3.54-24.66 24.8z" sodipodi:nodetypes="cccccccccccccccccccccccccccccccccccccccc" inkscape:connector-curvature="0" transform="translate(1.6319,-54.921)"/>
      <path id="path1212" style="fill-rule:evenodd;fill:#e69900" d="m269.29 517.32 3.55 7.09v10.63h10.62l7.09 3.54-7.09 3.55h-10.62v10.63l-3.55 7.08v-42.52z" sodipodi:nodetypes="cccccccccc" inkscape:connector-curvature="0" transform="translate(-1.7713,-54.921)"/>
    </g>
    <g id="g1213" style="fill:#e69900" transform="matrix(-.375 0 0 .5 305.83 -146.16)">
      <path id="path1214" style="fill-rule:evenodd;fill:#e69900" d="m265.89 605.9v-7.08l17.57-17.72-3.54-3.54 10.63-10.63-3.54-3.54-7.09 7.08-3.54-3.54 24.8-24.8 3.54 3.54-3.54 3.54 7.3 7.16 17.5-17.79-17.79-17.24-7.01 6.61 3.54 3.55-3.54 3.54-24.8-24.8 3.54-3.55 7.09 7.09 3.54-3.54-10.63-10.63 3.54-3.55-17.57-17.71v-7.09l24.66 24.8-3.54 3.55 10.63 10.63-7.09 7.08 7.09 7.09 10.63-10.63 24.94 25.22-24.94 24.39-10.63-10.63-7.09 7.08 7.09 7.09-10.63 10.63 3.54 3.54-24.66 24.8z" sodipodi:nodetypes="cccccccccccccccccccccccccccccccccccccccc" inkscape:connector-curvature="0" transform="translate(1.6319,-54.921)"/>
      <path id="path1215" style="fill-rule:evenodd;fill:#e69900" d="m269.29 517.32 3.55 7.09v10.63h10.62l7.09 3.54-7.09 3.55h-10.62v10.63l-3.55 7.08v-42.52z" sodipodi:nodetypes="cccccccccc" inkscape:connector-curvature="0" transform="translate(-1.7713,-54.921)"/>
    </g>
    <g id="g1216" style="fill:#e69900" transform="matrix(-.375 0 0 .5 306.27 -61.12)">
      <path id="path1217" style="fill-rule:evenodd;fill:#e69900" d="m265.89 605.9v-7.08l17.57-17.72-3.54-3.54 10.63-10.63-3.54-3.54-7.09 7.08-3.54-3.54 24.8-24.8 3.54 3.54-3.54 3.54 7.3 7.16 17.5-17.79-17.79-17.24-7.01 6.61 3.54 3.55-3.54 3.54-24.8-24.8 3.54-3.55 7.09 7.09 3.54-3.54-10.63-10.63 3.54-3.55-17.57-17.71v-7.09l24.66 24.8-3.54 3.55 10.63 10.63-7.09 7.08 7.09 7.09 10.63-10.63 24.94 25.22-24.94 24.39-10.63-10.63-7.09 7.08 7.09 7.09-10.63 10.63 3.54 3.54-24.66 24.8z" sodipodi:nodetypes="cccccccccccccccccccccccccccccccccccccccc" inkscape:connector-curvature="0" transform="translate(1.6319,-54.921)"/>
      <path id="path1218" style="fill-rule:evenodd;fill:#e69900" d="m269.29 517.32 3.55 7.09v10.63h10.62l7.09 3.54-7.09 3.55h-10.62v10.63l-3.55 7.08v-42.52z" sodipodi:nodetypes="cccccccccc" inkscape:connector-curvature="0" transform="translate(-1.7713,-54.921)"/>
    </g>
    <g id="g1219" style="fill:#e69900" transform="matrix(-.375 0 0 .5 305.83 23.919)">
      <path id="path1220" style="fill-rule:evenodd;fill:#e69900" d="m265.89 605.9v-7.08l17.57-17.72-3.54-3.54 10.63-10.63-3.54-3.54-7.09 7.08-3.54-3.54 24.8-24.8 3.54 3.54-3.54 3.54 7.3 7.16 17.5-17.79-17.79-17.24-7.01 6.61 3.54 3.55-3.54 3.54-24.8-24.8 3.54-3.55 7.09 7.09 3.54-3.54-10.63-10.63 3.54-3.55-17.57-17.71v-7.09l24.66 24.8-3.54 3.55 10.63 10.63-7.09 7.08 7.09 7.09 10.63-10.63 24.94 25.22-24.94 24.39-10.63-10.63-7.09 7.08 7.09 7.09-10.63 10.63 3.54 3.54-24.66 24.8z" sodipodi:nodetypes="cccccccccccccccccccccccccccccccccccccccc" inkscape:connector-curvature="0" transform="translate(1.6319,-54.921)"/>
      <path id="path1221" style="fill-rule:evenodd;fill:#e69900" d="m269.29 517.32 3.55 7.09v10.63h10.62l7.09 3.54-7.09 3.55h-10.62v10.63l-3.55 7.08v-42.52z" sodipodi:nodetypes="cccccccccc" inkscape:connector-curvature="0" transform="translate(-1.7713,-54.921)"/>
    </g>
    <g id="g1222" style="fill:#e69900" transform="matrix(-.375 0 0 .5 305.83 103.64)">
      <path id="path1223" style="fill-rule:evenodd;fill:#e69900" d="m265.89 605.9v-7.08l17.57-17.72-3.54-3.54 10.63-10.63-3.54-3.54-7.09 7.08-3.54-3.54 24.8-24.8 3.54 3.54-3.54 3.54 7.3 7.16 17.5-17.79-17.79-17.24-7.01 6.61 3.54 3.55-3.54 3.54-24.8-24.8 3.54-3.55 7.09 7.09 3.54-3.54-10.63-10.63 3.54-3.55-17.57-17.71v-7.09l24.66 24.8-3.54 3.55 10.63 10.63-7.09 7.08 7.09 7.09 10.63-10.63 24.94 25.22-24.94 24.39-10.63-10.63-7.09 7.08 7.09 7.09-10.63 10.63 3.54 3.54-24.66 24.8z" sodipodi:nodetypes="cccccccccccccccccccccccccccccccccccccccc" inkscape:connector-curvature="0" transform="translate(1.6319,-54.921)"/>
      <path id="path1224" style="fill-rule:evenodd;fill:#e69900" d="m269.29 517.32 3.55 7.09v10.63h10.62l7.09 3.54-7.09 3.55h-10.62v10.63l-3.55 7.08v-42.52z" sodipodi:nodetypes="cccccccccc" inkscape:connector-curvature="0" transform="translate(-1.7713,-54.921)"/>
    </g>
    <g id="g1230" style="fill:#e69900" transform="matrix(.75 0 0 1 46.063 .00023651)">
      <path id="path1226" style="fill-rule:evenodd;stroke-width:1pt;fill:#e69900" d="m265.89 605.9v-7.08l17.57-17.72-3.54-3.54 10.63-10.63-3.54-3.54-7.09 7.08-3.54-3.54 24.8-24.8 3.54 3.54-3.54 3.54 7.3 7.16 17.5-17.79h7.23l-24.94 24.81-10.63-10.63-7.09 7.08 7.09 7.09-10.63 10.63 3.54 3.54-24.66 24.8z" sodipodi:nodetypes="cccccccccccccccccccccc" inkscape:connector-curvature="0" transform="matrix(.5 0 0 .5 -132.94 -269.29)"/>
      <path id="path1227" style="fill-rule:evenodd;stroke-width:1pt;fill:#e69900" d="m269.29 538.58h21.26l-7.09 3.55h-10.62v10.63l-3.55 7.08v-21.26z" sodipodi:nodetypes="ccccccc" inkscape:connector-curvature="0" transform="matrix(.5 0 0 .5 -134.64 -269.29)"/>
    </g>
    <g id="g1233" style="fill:#e69900" transform="matrix(-.75 0 0 1 205.51 .00022125)">
      <path id="path1234" style="fill-rule:evenodd;stroke-width:1pt;fill:#e69900" d="m265.89 605.9v-7.08l17.57-17.72-3.54-3.54 10.63-10.63-3.54-3.54-7.09 7.08-3.54-3.54 24.8-24.8 3.54 3.54-3.54 3.54 7.3 7.16 17.5-17.79h7.23l-24.94 24.81-10.63-10.63-7.09 7.08 7.09 7.09-10.63 10.63 3.54 3.54-24.66 24.8z" sodipodi:nodetypes="cccccccccccccccccccccc" inkscape:connector-curvature="0" transform="matrix(.5 0 0 .5 -132.94 -269.29)"/>
      <path id="path1235" style="fill-rule:evenodd;stroke-width:1pt;fill:#e69900" d="m269.29 538.58h21.26l-7.09 3.55h-10.62v10.63l-3.55 7.08v-21.26z" sodipodi:nodetypes="ccccccc" inkscape:connector-curvature="0" transform="matrix(.5 0 0 .5 -134.64 -269.29)"/>
    </g>
    <path id="path1237" inkscape:connector-curvature="0" style="fill-rule:evenodd;stroke-width:1pt;fill:#e69900" transform="matrix(.51776 0 0 .6887 79.56 154.66)" d="m63.64 485.46s11.048-14.59 38.89-19.01c27.84-4.42 32.71 9.73 48.61 9.73 15.91 0 41.1-9.73 41.1-9.73s-25.19 18.56-44.63 18.12c-19.45-0.44-26.08-9.72-45.96-8.39-19.891 1.32-38.01 9.72-38.01 9.28z"/>
    <path id="path1238" inkscape:connector-curvature="0" style="fill-rule:evenodd;stroke-width:1pt;fill:#e69900" transform="matrix(-.51776 0 0 .6887 173.29 154.66)" d="m63.64 485.46s11.048-14.59 38.89-19.01c27.84-4.42 32.71 9.73 48.61 9.73 15.91 0 41.1-9.73 41.1-9.73s-25.19 18.56-44.63 18.12c-19.45-0.44-26.08-9.72-45.96-8.39-19.891 1.32-38.01 9.72-38.01 9.28z"/>
    <g id="g1245" style="fill:#e69900" transform="matrix(.75 0 0 1 46.063 .00023651)">
      <path id="path1239" style="fill-rule:evenodd;fill:#e69900" d="m256.77 423.14c-2.65-4.86-9.28-26.07-5.75-28.72 5.31-1.77 19.45 19.88 18.12 39.33-9.28 4.42-40.66-1.77-40.21-7.51 2.21-7.96 19.88-5.31 27.84-3.1z" sodipodi:nodetypes="ccccc" inkscape:connector-curvature="0" transform="matrix(.6382 0 0 .54658 -101.02 241.1)"/>
      <path id="path1240" style="fill-rule:evenodd;fill:#e69900" d="m256.77 423.14c-2.65-4.86-9.28-26.07-5.75-28.72 5.31-1.77 19.45 19.88 18.12 39.33-9.28 4.42-40.66-1.77-40.21-7.51 2.21-7.96 19.88-5.31 27.84-3.1z" sodipodi:nodetypes="ccccc" inkscape:connector-curvature="0" transform="matrix(.62445 .13174 -.11283 .53481 -61.849 202.12)"/>
      <path id="path1241" style="fill-rule:evenodd;fill:#e69900" d="m256.77 423.14c-2.65-4.86-9.28-26.07-5.75-28.72 5.31-1.77 19.45 19.88 18.12 39.33-9.28 4.42-40.66-1.77-40.21-7.51 2.21-7.96 19.88-5.31 27.84-3.1z" sodipodi:nodetypes="ccccc" inkscape:connector-curvature="0" transform="matrix(.60441 .20491 -.1755 .51764 -40.019 179.26)"/>
      <path id="path1242" style="fill-rule:evenodd;fill:#e69900" d="m256.77 423.14c-2.65-4.86-9.28-26.07-5.75-28.72 5.31-1.77 19.45 19.88 18.12 39.33-9.28 4.42-40.66-1.77-40.21-7.51 2.21-7.96 19.88-5.31 27.84-3.1z" sodipodi:nodetypes="ccccc" inkscape:connector-curvature="0" transform="matrix(.56534 .29612 -.25361 .48419 -4.6897 157.92)"/>
      <path id="path1243" style="fill-rule:evenodd;fill:#e69900" d="m256.77 423.14c-2.65-4.86-9.28-26.07-5.75-28.72 5.31-1.77 19.45 19.88 18.12 39.33-9.28 4.42-40.66-1.77-40.21-7.51 2.21-7.96 19.88-5.31 27.84-3.1z" sodipodi:nodetypes="ccccc" inkscape:connector-curvature="0" transform="matrix(.51695 .37425 -.32052 .44274 30.655 142.75)"/>
      <path id="path1244" style="fill-rule:evenodd;fill:#e69900" d="m259.25 409.98c26.54 7.12 24.65 14.73 0.77 24.06-9.28 4.42-40.66-1.76-40.22-7.51 2.21-7.96 29-18.64 39.45-16.55z" sodipodi:nodetypes="cccc" inkscape:connector-curvature="0" transform="matrix(.084663 .44011 -.38018 .12856 163.19 244.99)"/>
    </g>
    <g id="g1252" style="fill:#e69900" transform="matrix(-.75 0 0 1 206.07 1.3261)">
      <path id="path1253" style="fill-rule:evenodd;fill:#e69900" d="m256.77 423.14c-2.65-4.86-9.28-26.07-5.75-28.72 5.31-1.77 19.45 19.88 18.12 39.33-9.28 4.42-40.66-1.77-40.21-7.51 2.21-7.96 19.88-5.31 27.84-3.1z" sodipodi:nodetypes="ccccc" inkscape:connector-curvature="0" transform="matrix(.6382 0 0 .54658 -101.02 241.1)"/>
      <path id="path1254" style="fill-rule:evenodd;fill:#e69900" d="m256.77 423.14c-2.65-4.86-9.28-26.07-5.75-28.72 5.31-1.77 19.45 19.88 18.12 39.33-9.28 4.42-40.66-1.77-40.21-7.51 2.21-7.96 19.88-5.31 27.84-3.1z" sodipodi:nodetypes="ccccc" inkscape:connector-curvature="0" transform="matrix(.62445 .13174 -.11283 .53481 -61.849 202.12)"/>
      <path id="path1255" style="fill-rule:evenodd;fill:#e69900" d="m256.77 423.14c-2.65-4.86-9.28-26.07-5.75-28.72 5.31-1.77 19.45 19.88 18.12 39.33-9.28 4.42-40.66-1.77-40.21-7.51 2.21-7.96 19.88-5.31 27.84-3.1z" sodipodi:nodetypes="ccccc" inkscape:connector-curvature="0" transform="matrix(.60441 .20491 -.1755 .51764 -40.019 179.26)"/>
      <path id="path1256" style="fill-rule:evenodd;fill:#e69900" d="m256.77 423.14c-2.65-4.86-9.28-26.07-5.75-28.72 5.31-1.77 19.45 19.88 18.12 39.33-9.28 4.42-40.66-1.77-40.21-7.51 2.21-7.96 19.88-5.31 27.84-3.1z" sodipodi:nodetypes="ccccc" inkscape:connector-curvature="0" transform="matrix(.56534 .29612 -.25361 .48419 -4.6897 157.92)"/>
      <path id="path1257" style="fill-rule:evenodd;fill:#e69900" d="m256.77 423.14c-2.65-4.86-9.28-26.07-5.75-28.72 5.31-1.77 19.45 19.88 18.12 39.33-9.28 4.42-40.66-1.77-40.21-7.51 2.21-7.96 19.88-5.31 27.84-3.1z" sodipodi:nodetypes="ccccc" inkscape:connector-curvature="0" transform="matrix(.51695 .37425 -.32052 .44274 30.655 142.75)"/>
      <path id="path1258" style="fill-rule:evenodd;fill:#e69900" d="m259.25 409.98c26.54 7.12 24.65 14.73 0.77 24.06-9.28 4.42-40.66-1.76-40.22-7.51 2.21-7.96 29-18.64 39.45-16.55z" sodipodi:nodetypes="cccc" inkscape:connector-curvature="0" transform="matrix(.084663 .44011 -.38018 .12856 163.19 244.99)"/>
    </g>
    <g id="g2143" transform="matrix(.96875 0 0 1.2258 182.42 -74.639)">
      <path id="path1848" style="fill-rule:evenodd;stroke:#000000;stroke-width:.125;fill:#980000" d="m-3.5433 290.55h-5.3149v3.54h-5.3148v3.55h-21.26l-3.543 3.54 1.771 1.77h8.859l1.771-1.77h-8.858l1.772-1.77h12.401l-5.315 5.31h-12.401l-3.544-1.77-3.543 1.77h-12.402l-5.315-5.31h12.402l1.772 1.77h-8.859l1.772 1.77h8.858l1.772-1.77-3.543-3.54h-19.488v-3.55h-5.315v-3.54h-5.315v-15.94h5.315v-3.55h5.315v-3.54h19.488l3.543-3.54-1.772-1.78h-8.858l-1.772 1.78h8.859l-1.772 1.77h-12.402l5.315-5.32h12.402l3.543 1.77 3.544-1.77h12.401l5.315 5.32h-12.401l-1.772-1.77h8.858l-1.771-1.78h-8.859l-1.771 1.78 3.543 3.54h21.26v3.54h5.3148v3.55h5.3149v15.94z" sodipodi:nodetypes="ccccccccccccccccccccccccccccccccccccccccccccccccccccccccccccccc" inkscape:connector-curvature="0" transform="matrix(1.4884,0,0,1.24,3.5021,-39.474)"/>
      <path id="path560" style="fill-rule:evenodd;stroke:#e69900;stroke-width:1pt;fill:#004e00" d="m375.59 499.67v24.81h10.63v7.02h10.63v7.08h35.43l14.18 10.63 14.17-10.63h38.98v-7.02l10.63-0.06v-7.09h10.63v-24.8h-10.63v-7.09l-10.63 0.07v-7.16h-38.98l-14.17-10.63-14.18 10.63h-35.43v7.16h-10.63v7.08h-10.63z" sodipodi:nodetypes="ccccccccccccccccccccccccccc" inkscape:connector-curvature="0" transform="matrix(.74419 0 0 .62 -392.03 -6.521)"/>
      <path id="path561" style="fill-rule:evenodd;stroke-width:1pt;fill:#980000" d="m425.2 492.52-21.26 17.72v-17.72h21.26z" sodipodi:nodetypes="cccc" inkscape:connector-curvature="0" transform="matrix(.74419 0 0 .62 -392.03 -8.718)"/>
      <path id="path562" style="fill-rule:evenodd;stroke-width:1pt;fill:#980000" d="m425.2 492.52-21.26 17.72v-17.72h21.26z" sodipodi:nodetypes="cccc" inkscape:connector-curvature="0" transform="matrix(-.74419 0 0 .62 272.46 -8.7184)"/>
      <path id="path563" style="fill-rule:evenodd;stroke-width:1pt;fill:#980000" d="m425.2 492.52-21.26 17.72v-17.72h21.26z" sodipodi:nodetypes="cccc" inkscape:connector-curvature="0" transform="matrix(.74419 0 0 -.62 -392.03 630.57)"/>
      <path id="path564" style="fill-rule:evenodd;stroke-width:1pt;fill:#980000" d="m425.2 492.52-21.26 17.72v-17.72h21.26z" sodipodi:nodetypes="cccc" inkscape:connector-curvature="0" transform="matrix(-.74418 0 0 -.62 272.46 630.57)"/>
      <path id="path565" style="fill-rule:evenodd;stroke-width:1pt;fill:#980000" d="m474.8 506.69-7.08 7.09h14.17l-7.09-7.09z" sodipodi:nodetypes="cccc" inkscape:connector-curvature="0" transform="matrix(.74419 0 0 .62 -392.03 -10.915)"/>
      <path id="path566" style="fill-rule:evenodd;stroke-width:1pt;fill:#980000" d="m418.11 506.69-7.09 7.09h14.18l-7.09-7.09z" sodipodi:nodetypes="cccc" inkscape:connector-curvature="0" transform="matrix(.74419 0 0 .62 -392.03 -10.915)"/>
      <path id="path567" style="fill-rule:evenodd;stroke-width:1pt;fill:#980000" d="m418.11 506.69-7.09 7.09h14.18l-7.09-7.09z" sodipodi:nodetypes="cccc" inkscape:connector-curvature="0" transform="matrix(.74419 0 0 -.62 -392.03 632.77)"/>
      <path id="path568" style="fill-rule:evenodd;stroke-width:1pt;fill:#980000" d="m418.11 506.69-7.09 7.09h14.18l-7.09-7.09z" sodipodi:nodetypes="cccc" inkscape:connector-curvature="0" transform="matrix(.74419 0 0 -.62 -349.84 632.77)"/>
      <path id="path569" style="fill-rule:evenodd;stroke-width:1pt;fill:#e69900" d="m418.11 506.69-7.09 7.09h14.18l-7.09-7.09z" sodipodi:nodetypes="cccc" inkscape:connector-curvature="0" transform="matrix(.74419 0 0 -.62 -370.94 643.75)"/>
      <path id="path570" style="fill-rule:evenodd;stroke-width:1pt;fill:#e69900" d="m418.11 506.69-7.09 7.09h14.18l-7.09-7.09z" sodipodi:nodetypes="cccc" inkscape:connector-curvature="0" transform="matrix(.74419 0 0 -.62 -370.94 621.78)"/>
      <path id="path571" style="fill-rule:evenodd;stroke-width:1pt;fill:#e69900" d="m418.11 506.69-7.09 7.09h14.18l-7.09-7.09z" sodipodi:nodetypes="cccc" inkscape:connector-curvature="0" transform="matrix(.74419 0 0 .62 -370.94 -21.899)"/>
      <path id="path572" style="fill-rule:evenodd;stroke-width:1pt;fill:#e69900" d="m418.11 506.69-7.09 7.09h14.18l-7.09-7.09z" sodipodi:nodetypes="cccc" inkscape:connector-curvature="0" transform="matrix(.74419 0 0 .62 -370.94 .069252)"/>
      <rect id="rect579" style="fill-rule:evenodd;stroke:#000000;stroke-width:.125;fill:#e69900" transform="matrix(.74419 0 0 .62 -392.03 -6.521)" height="3.5433" width="14.173" y="506.69" x="467.72"/>
      <rect id="rect592" style="fill-rule:evenodd;stroke:#000000;stroke-width:.125;fill:#cc0000" transform="matrix(.74419 0 0 .62 -392.03 -6.521)" height="3.5433" width="7.0866" y="510.24" x="414.57"/>
      <rect id="rect593" style="fill-rule:evenodd;stroke:#000000;stroke-width:.125;fill:#cc0000" transform="matrix(.74419 0 0 .62 -392.03 -6.521)" height="3.5433" width="7.0866" y="510.24" x="471.26"/>
      <rect id="rect595" style="fill-rule:evenodd;stroke:#000000;stroke-width:.125;fill:#990000" transform="matrix(.74419 0 0 .62 -392.03 -6.521)" height="3.5432" width="14.173" y="488.98" x="439.37"/>
      <rect id="rect596" style="fill-rule:evenodd;stroke:#000000;stroke-width:.125;fill:#990000" transform="matrix(.74419 0 0 .62 -392.03 -6.521)" height="3.5432" width="14.173" y="496.06" x="439.37"/>
      <rect id="rect597" style="fill-rule:evenodd;stroke:#000000;stroke-width:.125;fill:#990000" transform="matrix(.74419 0 0 .62 -392.03 -6.521)" height="3.5432" width="21.26" y="492.52" x="435.83"/>
      <rect id="rect598" style="fill-rule:evenodd;stroke:#000000;stroke-width:.125;fill:#990000" transform="matrix(.74419 0 0 .62 -392.03 -6.521)" height="3.5432" width="14.173" y="524.41" x="439.37"/>
      <rect id="rect599" style="fill-rule:evenodd;stroke:#000000;stroke-width:.125;fill:#990000" transform="matrix(.74419 0 0 .62 -392.03 -6.521)" height="3.5432" width="14.173" y="531.5" x="439.37"/>
      <rect id="rect600" style="fill-rule:evenodd;stroke:#000000;stroke-width:.125;fill:#990000" transform="matrix(.74419 0 0 .62 -392.03 -6.521)" height="3.5432" width="21.26" y="527.95" x="435.83"/>
      <rect id="rect601" style="fill-rule:evenodd;stroke:#000000;stroke-width:.125;fill:#e69900" transform="matrix(.74419 0 0 .62 -392.03 -6.521)" height="3.5433" width="14.173" y="513.78" x="467.72"/>
      <rect id="rect602" style="fill-rule:evenodd;stroke:#000000;stroke-width:.125;fill:#e69900" transform="matrix(.74419 0 0 .62 -392.03 -6.521)" height="3.5433" width="14.173" y="506.69" x="411.02"/>
      <rect id="rect603" style="fill-rule:evenodd;stroke:#000000;stroke-width:.125;fill:#e69900" transform="matrix(.74419 0 0 .62 -392.03 -6.521)" height="3.5433" width="14.173" y="513.78" x="411.02"/>
      <rect id="rect604" style="fill-rule:evenodd;stroke:#000000;stroke-width:.125;fill:#e69900" transform="matrix(.74419 0 0 .62 -392.03 -6.521)" height="3.5433" width="7.0866" y="510.24" x="407.48"/>
      <rect id="rect605" style="fill-rule:evenodd;stroke:#000000;stroke-width:.125;fill:#e69900" transform="matrix(.74419 0 0 .62 -392.03 -6.521)" height="3.5433" width="7.0866" y="510.24" x="421.65"/>
      <rect id="rect606" style="fill-rule:evenodd;stroke:#000000;stroke-width:.125;fill:#e69900" transform="matrix(.74419 0 0 .62 -392.03 -6.521)" height="3.5433" width="7.0866" y="510.24" x="464.17"/>
      <rect id="rect607" style="fill-rule:evenodd;stroke:#000000;stroke-width:.125;fill:#e69900" transform="matrix(.74419 0 0 .62 -392.03 -6.521)" height="3.5433" width="7.0866" y="510.24" x="478.35"/>
      <path id="path615" sodipodi:rx="0.88583398" sodipodi:ry="0.88583398" style="fill-rule:evenodd;stroke-width:1pt;fill:#ffffff" sodipodi:type="arc" d="m414.57 581.99c0 0.48923-0.39661 0.88583-0.88584 0.88583s-0.88583-0.3966-0.88583-0.88583 0.3966-0.88583 0.88583-0.88583 0.88584 0.3966 0.88584 0.88583z" transform="matrix(.74419 0 0 .62 -374.14 -38.912)" sodipodi:cy="581.98816" sodipodi:cx="413.68109"/>
      <path id="path616" sodipodi:rx="0.88583398" sodipodi:ry="0.88583398" style="fill-rule:evenodd;stroke-width:1pt;fill:#ffffff" sodipodi:type="arc" d="m414.57 581.99c0 0.48923-0.39661 0.88583-0.88584 0.88583s-0.88583-0.3966-0.88583-0.88583 0.3966-0.88583 0.88583-0.88583 0.88584 0.3966 0.88584 0.88583z" transform="matrix(.74419 0 0 .62 -367.57 -38.912)" sodipodi:cy="581.98816" sodipodi:cx="413.68109"/>
      <path id="path617" sodipodi:rx="0.88583398" sodipodi:ry="0.88583398" style="fill-rule:evenodd;stroke-width:1pt;fill:#ffffff" sodipodi:type="arc" d="m414.57 581.99c0 0.48923-0.39661 0.88583-0.88584 0.88583s-0.88583-0.3966-0.88583-0.88583 0.3966-0.88583 0.88583-0.88583 0.88584 0.3966 0.88584 0.88583z" transform="matrix(.74419 0 0 .62 -361 -38.958)" sodipodi:cy="581.98816" sodipodi:cx="413.68109"/>
      <path id="path618" sodipodi:rx="0.88583398" sodipodi:ry="0.88583398" style="fill-rule:evenodd;stroke-width:1pt;fill:#ffffff" sodipodi:type="arc" d="m414.57 581.99c0 0.48923-0.39661 0.88583-0.88584 0.88583s-0.88583-0.3966-0.88583-0.88583 0.3966-0.88583 0.88583-0.88583 0.88584 0.3966 0.88584 0.88583z" transform="matrix(.74419 0 0 .62 -371.51 -41.102)" sodipodi:cy="581.98816" sodipodi:cx="413.68109"/>
      <path id="path619" sodipodi:rx="0.88583398" sodipodi:ry="0.88583398" style="fill-rule:evenodd;stroke-width:1pt;fill:#ffffff" sodipodi:type="arc" d="m414.57 581.99c0 0.48923-0.39661 0.88583-0.88584 0.88583s-0.88583-0.3966-0.88583-0.88583 0.3966-0.88583 0.88583-0.88583 0.88584 0.3966 0.88584 0.88583z" transform="matrix(.74419 0 0 .62 -363.68 -41.148)" sodipodi:cy="581.98816" sodipodi:cx="413.68109"/>
      <path id="path620" sodipodi:rx="0.88583398" sodipodi:ry="0.88583398" style="fill-rule:evenodd;stroke-width:1pt;fill:#ffffff" sodipodi:type="arc" d="m414.57 581.99c0 0.48923-0.39661 0.88583-0.88584 0.88583s-0.88583-0.3966-0.88583-0.88583 0.3966-0.88583 0.88583-0.88583 0.88584 0.3966 0.88584 0.88583z" transform="matrix(.74419 0 0 .62 -371.57 -36.768)" sodipodi:cy="581.98816" sodipodi:cx="413.68109"/>
      <path id="path621" sodipodi:rx="0.88583398" sodipodi:ry="0.88583398" style="fill-rule:evenodd;stroke-width:1pt;fill:#ffffff" sodipodi:type="arc" d="m414.57 581.99c0 0.48923-0.39661 0.88583-0.88584 0.88583s-0.88583-0.3966-0.88583-0.88583 0.3966-0.88583 0.88583-0.88583 0.88584 0.3966 0.88584 0.88583z" transform="matrix(.74419 0 0 .62 -363.68 -36.677)" sodipodi:cy="581.98816" sodipodi:cx="413.68109"/>
      <path id="path622" sodipodi:rx="0.88583398" sodipodi:ry="0.88583398" style="fill-rule:evenodd;stroke-width:1pt;fill:#ffffff" sodipodi:type="arc" d="m414.57 581.99c0 0.48923-0.39661 0.88583-0.88584 0.88583s-0.88583-0.3966-0.88583-0.88583 0.3966-0.88583 0.88583-0.88583 0.88584 0.3966 0.88584 0.88583z" transform="matrix(.74419 0 0 .62 -353.17 -49.999)" sodipodi:cy="581.98816" sodipodi:cx="413.68109"/>
      <path id="path623" sodipodi:rx="0.88583398" sodipodi:ry="0.88583398" style="fill-rule:evenodd;stroke-width:1pt;fill:#ffffff" sodipodi:type="arc" d="m414.57 581.99c0 0.48923-0.39661 0.88583-0.88584 0.88583s-0.88583-0.3966-0.88583-0.88583 0.3966-0.88583 0.88583-0.88583 0.88584 0.3966 0.88584 0.88583z" transform="matrix(.74419 0 0 .62 -346.59 -49.999)" sodipodi:cy="581.98816" sodipodi:cx="413.68109"/>
      <path id="path624" sodipodi:rx="0.88583398" sodipodi:ry="0.88583398" style="fill-rule:evenodd;stroke-width:1pt;fill:#ffffff" sodipodi:type="arc" d="m414.57 581.99c0 0.48923-0.39661 0.88583-0.88584 0.88583s-0.88583-0.3966-0.88583-0.88583 0.3966-0.88583 0.88583-0.88583 0.88584 0.3966 0.88584 0.88583z" transform="matrix(.74419 0 0 .62 -340.02 -50.045)" sodipodi:cy="581.98816" sodipodi:cx="413.68109"/>
      <path id="path625" sodipodi:rx="0.88583398" sodipodi:ry="0.88583398" style="fill-rule:evenodd;stroke-width:1pt;fill:#ffffff" sodipodi:type="arc" d="m414.57 581.99c0 0.48923-0.39661 0.88583-0.88584 0.88583s-0.88583-0.3966-0.88583-0.88583 0.3966-0.88583 0.88583-0.88583 0.88584 0.3966 0.88584 0.88583z" transform="matrix(.74419 0 0 .62 -350.54 -52.189)" sodipodi:cy="581.98816" sodipodi:cx="413.68109"/>
      <path id="path626" sodipodi:rx="0.88583398" sodipodi:ry="0.88583398" style="fill-rule:evenodd;stroke-width:1pt;fill:#ffffff" sodipodi:type="arc" d="m414.57 581.99c0 0.48923-0.39661 0.88583-0.88584 0.88583s-0.88583-0.3966-0.88583-0.88583 0.3966-0.88583 0.88583-0.88583 0.88584 0.3966 0.88584 0.88583z" transform="matrix(.74419 0 0 .62 -342.71 -52.235)" sodipodi:cy="581.98816" sodipodi:cx="413.68109"/>
      <path id="path627" sodipodi:rx="0.88583398" sodipodi:ry="0.88583398" style="fill-rule:evenodd;stroke-width:1pt;fill:#ffffff" sodipodi:type="arc" d="m414.57 581.99c0 0.48923-0.39661 0.88583-0.88584 0.88583s-0.88583-0.3966-0.88583-0.88583 0.3966-0.88583 0.88583-0.88583 0.88584 0.3966 0.88584 0.88583z" transform="matrix(.74419 0 0 .62 -350.59 -47.855)" sodipodi:cy="581.98816" sodipodi:cx="413.68109"/>
      <path id="path628" sodipodi:rx="0.88583398" sodipodi:ry="0.88583398" style="fill-rule:evenodd;stroke-width:1pt;fill:#ffffff" sodipodi:type="arc" d="m414.57 581.99c0 0.48923-0.39661 0.88583-0.88584 0.88583s-0.88583-0.3966-0.88583-0.88583 0.3966-0.88583 0.88583-0.88583 0.88584 0.3966 0.88584 0.88583z" transform="matrix(.74419 0 0 .62 -342.71 -47.764)" sodipodi:cy="581.98816" sodipodi:cx="413.68109"/>
      <path id="path629" sodipodi:rx="0.88583398" sodipodi:ry="0.88583398" style="fill-rule:evenodd;stroke-width:1pt;fill:#ffffff" sodipodi:type="arc" d="m414.57 581.99c0 0.48923-0.39661 0.88583-0.88584 0.88583s-0.88583-0.3966-0.88583-0.88583 0.3966-0.88583 0.88583-0.88583 0.88584 0.3966 0.88584 0.88583z" transform="matrix(.74419 0 0 .62 -374.2 -60.904)" sodipodi:cy="581.98816" sodipodi:cx="413.68109"/>
      <path id="path630" sodipodi:rx="0.88583398" sodipodi:ry="0.88583398" style="fill-rule:evenodd;stroke-width:1pt;fill:#ffffff" sodipodi:type="arc" d="m414.57 581.99c0 0.48923-0.39661 0.88583-0.88584 0.88583s-0.88583-0.3966-0.88583-0.88583 0.3966-0.88583 0.88583-0.88583 0.88584 0.3966 0.88584 0.88583z" transform="matrix(.74419 0 0 .62 -367.62 -60.904)" sodipodi:cy="581.98816" sodipodi:cx="413.68109"/>
      <path id="path631" sodipodi:rx="0.88583398" sodipodi:ry="0.88583398" style="fill-rule:evenodd;stroke-width:1pt;fill:#ffffff" sodipodi:type="arc" d="m414.57 581.99c0 0.48923-0.39661 0.88583-0.88584 0.88583s-0.88583-0.3966-0.88583-0.88583 0.3966-0.88583 0.88583-0.88583 0.88584 0.3966 0.88584 0.88583z" transform="matrix(.74419 0 0 .62 -361.05 -60.949)" sodipodi:cy="581.98816" sodipodi:cx="413.68109"/>
      <path id="path632" sodipodi:rx="0.88583398" sodipodi:ry="0.88583398" style="fill-rule:evenodd;stroke-width:1pt;fill:#ffffff" sodipodi:type="arc" d="m414.57 581.99c0 0.48923-0.39661 0.88583-0.88584 0.88583s-0.88583-0.3966-0.88583-0.88583 0.3966-0.88583 0.88583-0.88583 0.88584 0.3966 0.88584 0.88583z" transform="matrix(.74419 0 0 .62 -371.57 -63.094)" sodipodi:cy="581.98816" sodipodi:cx="413.68109"/>
      <path id="path633" sodipodi:rx="0.88583398" sodipodi:ry="0.88583398" style="fill-rule:evenodd;stroke-width:1pt;fill:#ffffff" sodipodi:type="arc" d="m414.57 581.99c0 0.48923-0.39661 0.88583-0.88584 0.88583s-0.88583-0.3966-0.88583-0.88583 0.3966-0.88583 0.88583-0.88583 0.88584 0.3966 0.88584 0.88583z" transform="matrix(.74419 0 0 .62 -363.74 -63.139)" sodipodi:cy="581.98816" sodipodi:cx="413.68109"/>
      <path id="path634" sodipodi:rx="0.88583398" sodipodi:ry="0.88583398" style="fill-rule:evenodd;stroke-width:1pt;fill:#ffffff" sodipodi:type="arc" d="m414.57 581.99c0 0.48923-0.39661 0.88583-0.88584 0.88583s-0.88583-0.3966-0.88583-0.88583 0.3966-0.88583 0.88583-0.88583 0.88584 0.3966 0.88584 0.88583z" transform="matrix(.74419 0 0 .62 -371.62 -58.759)" sodipodi:cy="581.98816" sodipodi:cx="413.68109"/>
      <path id="path635" sodipodi:rx="0.88583398" sodipodi:ry="0.88583398" style="fill-rule:evenodd;stroke-width:1pt;fill:#ffffff" sodipodi:type="arc" d="m414.57 581.99c0 0.48923-0.39661 0.88583-0.88584 0.88583s-0.88583-0.3966-0.88583-0.88583 0.3966-0.88583 0.88583-0.88583 0.88584 0.3966 0.88584 0.88583z" transform="matrix(.74419 0 0 .62 -363.74 -58.668)" sodipodi:cy="581.98816" sodipodi:cx="413.68109"/>
      <path id="path636" sodipodi:rx="0.88583398" sodipodi:ry="0.88583398" style="fill-rule:evenodd;stroke-width:1pt;fill:#ffffff" sodipodi:type="arc" d="m414.57 581.99c0 0.48923-0.39661 0.88583-0.88584 0.88583s-0.88583-0.3966-0.88583-0.88583 0.3966-0.88583 0.88583-0.88583 0.88584 0.3966 0.88584 0.88583z" transform="matrix(.74419 0 0 .62 -395.28 -49.817)" sodipodi:cy="581.98816" sodipodi:cx="413.68109"/>
      <path id="path637" sodipodi:rx="0.88583398" sodipodi:ry="0.88583398" style="fill-rule:evenodd;stroke-width:1pt;fill:#ffffff" sodipodi:type="arc" d="m414.57 581.99c0 0.48923-0.39661 0.88583-0.88584 0.88583s-0.88583-0.3966-0.88583-0.88583 0.3966-0.88583 0.88583-0.88583 0.88584 0.3966 0.88584 0.88583z" transform="matrix(.74419 0 0 .62 -388.71 -49.817)" sodipodi:cy="581.98816" sodipodi:cx="413.68109"/>
      <path id="path638" sodipodi:rx="0.88583398" sodipodi:ry="0.88583398" style="fill-rule:evenodd;stroke-width:1pt;fill:#ffffff" sodipodi:type="arc" d="m414.57 581.99c0 0.48923-0.39661 0.88583-0.88584 0.88583s-0.88583-0.3966-0.88583-0.88583 0.3966-0.88583 0.88583-0.88583 0.88584 0.3966 0.88584 0.88583z" transform="matrix(.74419 0 0 .62 -382.14 -49.862)" sodipodi:cy="581.98816" sodipodi:cx="413.68109"/>
      <path id="path639" sodipodi:rx="0.88583398" sodipodi:ry="0.88583398" style="fill-rule:evenodd;stroke-width:1pt;fill:#ffffff" sodipodi:type="arc" d="m414.57 581.99c0 0.48923-0.39661 0.88583-0.88584 0.88583s-0.88583-0.3966-0.88583-0.88583 0.3966-0.88583 0.88583-0.88583 0.88584 0.3966 0.88584 0.88583z" transform="matrix(.74419 0 0 .62 -392.65 -52.007)" sodipodi:cy="581.98816" sodipodi:cx="413.68109"/>
      <path id="path640" sodipodi:rx="0.88583398" sodipodi:ry="0.88583398" style="fill-rule:evenodd;stroke-width:1pt;fill:#ffffff" sodipodi:type="arc" d="m414.57 581.99c0 0.48923-0.39661 0.88583-0.88584 0.88583s-0.88583-0.3966-0.88583-0.88583 0.3966-0.88583 0.88583-0.88583 0.88584 0.3966 0.88584 0.88583z" transform="matrix(.74419 0 0 .62 -384.82 -52.052)" sodipodi:cy="581.98816" sodipodi:cx="413.68109"/>
      <path id="path641" sodipodi:rx="0.88583398" sodipodi:ry="0.88583398" style="fill-rule:evenodd;stroke-width:1pt;fill:#ffffff" sodipodi:type="arc" d="m414.57 581.99c0 0.48923-0.39661 0.88583-0.88584 0.88583s-0.88583-0.3966-0.88583-0.88583 0.3966-0.88583 0.88583-0.88583 0.88584 0.3966 0.88584 0.88583z" transform="matrix(.74419 0 0 .62 -392.71 -47.672)" sodipodi:cy="581.98816" sodipodi:cx="413.68109"/>
      <path id="path642" sodipodi:rx="0.88583398" sodipodi:ry="0.88583398" style="fill-rule:evenodd;stroke-width:1pt;fill:#ffffff" sodipodi:type="arc" d="m414.57 581.99c0 0.48923-0.39661 0.88583-0.88584 0.88583s-0.88583-0.3966-0.88583-0.88583 0.3966-0.88583 0.88583-0.88583 0.88584 0.3966 0.88584 0.88583z" transform="matrix(.74419 0 0 .62 -384.82 -47.581)" sodipodi:cy="581.98816" sodipodi:cx="413.68109"/>
    </g>
    <g id="g1762" transform="matrix(1,0,0,1.1622,193.11,-34.284)">
      <path id="path1072" style="fill-rule:evenodd;stroke-width:1pt;fill:#ffffff" d="m-79.724 145.28 3.543 3.54 3.543-3.54h-7.086z" sodipodi:nodetypes="cccc" inkscape:connector-curvature="0" transform="matrix(1.24 0 0 -.49996 40.323 315.35)"/>
      <path id="path1071" style="fill-rule:evenodd;stroke-width:1pt;fill:#ffffff" d="m-79.724 145.28 3.543 3.54 3.543-3.54h-7.086z" sodipodi:nodetypes="cccc" inkscape:connector-curvature="0" transform="matrix(1.24 0 0 -.49996 27.142 315.35)"/>
      <path id="path1070" style="fill-rule:evenodd;stroke-width:1pt;fill:#ffffff" d="m-79.724 145.28 3.543 3.54 3.543-3.54h-7.086z" sodipodi:nodetypes="cccc" inkscape:connector-curvature="0" transform="matrix(1.24 0 0 -.49996 13.961 315.35)"/>
      <path id="path1069" style="fill-rule:evenodd;stroke-width:1pt;fill:#ffffff" d="m-79.724 145.28 3.543 3.54 3.543-3.54h-7.086z" sodipodi:nodetypes="cccc" inkscape:connector-curvature="0" transform="matrix(1.24 0 0 .49996 40.323 129.34)"/>
      <path id="path1068" style="fill-rule:evenodd;stroke-width:1pt;fill:#ffffff" d="m-79.724 145.28 3.543 3.54 3.543-3.54h-7.086z" sodipodi:nodetypes="cccc" inkscape:connector-curvature="0" transform="matrix(1.24 0 0 .49996 27.142 129.34)"/>
      <path id="path1067" style="fill-rule:evenodd;stroke-width:1pt;fill:#ffffff" d="m-79.724 145.28 3.543 3.54 3.543-3.54h-7.086z" sodipodi:nodetypes="cccc" inkscape:connector-curvature="0" transform="matrix(1.24 0 0 .49996 13.961 129.34)"/>
      <path id="path1057" style="fill-rule:evenodd;stroke-width:0;fill:#004e00" d="m-83.268 219.68-5.314-3.54-5.316 3.54-5.314-3.54-5.318 3.54v-1.77l3.55-1.77-1.78-1.77v-1.77h1.78l1.768 1.77 1.771-1.77h1.772v1.77l-1.772 1.77 3.543 1.77 3.544-1.77-1.772-1.77v-1.77h1.772l1.772 1.77 1.771-1.77h1.772v1.77l-1.772 1.77 3.543 1.77 3.544-1.77-1.772-1.77v-1.77h1.772l1.772 1.77 1.771-1.77h1.772v1.77l-1.772 1.77 3.543 1.77v1.77l-5.314-3.54-5.316 3.54z" sodipodi:nodetypes="ccccccccccccccccccccccccccccccccccccccc" inkscape:connector-curvature="0" transform="matrix(.96446 0 0 -.99994 18.111 467.7)"/>
      <path id="path1056" style="fill-rule:evenodd;stroke-width:0;fill:#004e00" d="m-83.268 219.68-5.314-3.54-5.316 3.54-5.314-3.54-5.318 3.54v-1.77l3.55-1.77-1.78-1.77v-1.77h1.78l1.768 1.77 1.771-1.77h1.772v1.77l-1.772 1.77 3.543 1.77 3.544-1.77-1.772-1.77v-1.77h1.772l1.772 1.77 1.771-1.77h1.772v1.77l-1.772 1.77 3.543 1.77 3.544-1.77-1.772-1.77v-1.77h1.772l1.772 1.77 1.771-1.77h1.772v1.77l-1.772 1.77 3.543 1.77v1.77l-5.314-3.54-5.316 3.54z" sodipodi:nodetypes="ccccccccccccccccccccccccccccccccccccccc" inkscape:connector-curvature="0" transform="matrix(.96446 0 0 .99994 18.112 -23.018)"/>
      <path id="path1055" style="fill-rule:evenodd;stroke-width:0;fill:#004e00" d="m-83.268 219.68-5.314-3.54-5.316 3.54-5.314-3.54-5.318 3.54v-1.77l3.55-1.77-1.78-1.77v-1.77h1.78l1.768 1.77 1.771-1.77h1.772v1.77l-1.772 1.77 3.543 1.77 3.544-1.77-1.772-1.77v-1.77h1.772l1.772 1.77 1.771-1.77h1.772v1.77l-1.772 1.77 3.543 1.77 3.544-1.77-1.772-1.77v-1.77h1.772l1.772 1.77 1.771-1.77h1.772v1.77l-1.772 1.77 3.543 1.77v1.77l-5.314-3.54-5.316 3.54z" sodipodi:nodetypes="ccccccccccccccccccccccccccccccccccccccc" inkscape:connector-curvature="0" transform="matrix(0 .72224 -1.5499 0 317.11 286.32)"/>
      <path id="path1054" style="fill-rule:evenodd;stroke-width:0;fill:#004e00" d="m-83.268 219.68-5.314-3.54-5.316 3.54-5.314-3.54-5.318 3.54v-1.77l3.55-1.77-1.78-1.77v-1.77h1.78l1.768 1.77 1.771-1.77h1.772v1.77l-1.772 1.77 3.543 1.77 3.544-1.77-1.772-1.77v-1.77h1.772l1.772 1.77 1.771-1.77h1.772v1.77l-1.772 1.77 3.543 1.77 3.544-1.77-1.772-1.77v-1.77h1.772l1.772 1.77 1.771-1.77h1.772v1.77l-1.772 1.77 3.543 1.77v1.77l-5.314-3.54-5.316 3.54z" sodipodi:nodetypes="ccccccccccccccccccccccccccccccccccccccc" inkscape:connector-curvature="0" transform="matrix(0 .72224 1.5499 0 -451.75 286.32)"/>
      <rect id="rect1052" style="fill-rule:evenodd;stroke:#000000;stroke-width:.25;fill:#004e00" transform="matrix(1.24,0,0,1,11.764,24.803)" height="1.7716" width="1.7717" y="214.37" x="-26.575"/>
      <rect id="rect1053" style="fill-rule:evenodd;stroke:#000000;stroke-width:.25;fill:#004e00" transform="matrix(1.24,0,0,1,11.764,24.803)" height="1.7717" width="1.7717" y="216.14" x="-28.346"/>
      <rect id="rect1048" style="fill-rule:evenodd;stroke:#000000;stroke-width:.25;fill:#004e00" transform="matrix(1.24,0,0,1,11.764,24.803)" height="1.7716" width="1.7717" y="225" x="-37.205"/>
      <rect id="rect1049" style="fill-rule:evenodd;stroke:#000000;stroke-width:.25;fill:#004e00" transform="matrix(1.24,0,0,1,11.764,24.803)" height="1.7717" width="1.7717" y="223.23" x="-35.433"/>
      <rect id="rect1046" style="fill-rule:evenodd;stroke:#000000;stroke-width:.25;fill:#004e00" transform="matrix(1.24,0,0,1,11.764,24.803)" height="1.7717" width="1.7716" y="223.23" x="-93.898"/>
      <rect id="rect1044" style="fill-rule:evenodd;stroke:#000000;stroke-width:.25;fill:#004e00" transform="matrix(1.24,0,0,1,11.764,24.803)" height="1.7716" width="1.7717" y="214.37" x="-102.76"/>
      <rect id="rect1045" style="fill-rule:evenodd;stroke:#000000;stroke-width:.25;fill:#004e00" transform="matrix(1.24,0,0,1,11.764,24.803)" height="1.7717" width="1.7717" y="216.14" x="-100.98"/>
      <rect id="rect1042" style="fill-rule:evenodd;stroke:#000000;stroke-width:.25;fill:#004e00" transform="matrix(1.24,0,0,1,11.764,24.803)" height="1.7716" width="1.7717" y="177.17" x="-100.98"/>
      <rect id="rect1043" style="fill-rule:evenodd;stroke:#000000;stroke-width:.25;fill:#004e00" transform="matrix(1.24,0,0,1,11.764,24.803)" height="1.7717" width="1.7717" y="178.94" x="-102.76"/>
      <rect id="rect1040" style="fill-rule:evenodd;stroke:#000000;stroke-width:.25;fill:#004e00" transform="matrix(1.24,0,0,1,11.764,24.803)" height="1.7716" width="1.7717" y="168.31" x="-92.126"/>
      <rect id="rect1041" style="fill-rule:evenodd;stroke:#000000;stroke-width:.25;fill:#004e00" transform="matrix(1.24,0,0,1,11.764,24.803)" height="1.7717" width="1.7716" y="170.08" x="-93.898"/>
      <rect id="rect1038" style="fill-rule:evenodd;stroke:#000000;stroke-width:.25;fill:#004e00" transform="matrix(1.24,0,0,1,11.764,24.803)" height="1.7716" width="1.7717" y="168.31" x="-37.205"/>
      <rect id="rect1039" style="fill-rule:evenodd;stroke:#000000;stroke-width:.25;fill:#004e00" transform="matrix(1.24,0,0,1,11.764,24.803)" height="1.7717" width="1.7717" y="170.08" x="-35.433"/>
      <rect id="rect1050" style="fill-rule:evenodd;stroke:#000000;stroke-width:.25;fill:#004e00" transform="matrix(1.24,0,0,1,11.764,24.803)" height="1.7716" width="1.7717" y="177.17" x="-28.346"/>
      <rect id="rect1051" style="fill-rule:evenodd;stroke:#000000;stroke-width:.25;fill:#004e00" transform="matrix(1.24,0,0,1,11.764,24.803)" height="1.7717" width="1.7717" y="178.94" x="-26.575"/>
      <rect id="rect1047" style="fill-rule:evenodd;stroke:#000000;stroke-width:.25;fill:#004e00" transform="matrix(1.24,0,0,1,11.764,24.803)" height="1.7716" width="1.7717" y="225" x="-92.126"/>
      <path id="path925" style="fill-rule:evenodd;stroke-width:1.25;fill:#ffffff" d="m423.42 278.15h-15.94v-8.87l10.63 0.01v-8.31h10.63v-7.64h10.63v9.54c-8.8 0-15.95 6.47-15.95 15.27z" sodipodi:nodetypes="cccccccccc" inkscape:connector-curvature="0" transform="matrix(.40618 0 0 .39281 -246.01 113.08)"/>
      <path id="path927" style="fill-rule:evenodd;stroke-width:1.25;fill:#e69900" d="m423.42 278.15h-15.94v-8.87l10.63 0.01v-8.31h10.63v-7.64h10.63v9.54c-8.8 0-15.95 6.47-15.95 15.27z" sodipodi:nodetypes="cccccccccc" inkscape:connector-curvature="0" transform="matrix(-.40618 0 0 .39281 110.91 113.08)"/>
      <path id="path928" style="fill-rule:evenodd;stroke-width:1.25;fill:#ffffff" d="m423.42 278.15h-15.94v-8.87l10.63 0.01v-8.31h10.63v-7.64h10.63v9.54c-8.8 0-15.95 6.47-15.95 15.27z" sodipodi:nodetypes="cccccccccc" inkscape:connector-curvature="0" transform="matrix(-.40618 0 0 -.39281 110.91 331.6)"/>
      <path id="path929" style="fill-rule:evenodd;stroke-width:1.25;fill:#e69900" d="m423.42 278.15h-15.94v-8.87l10.63 0.01v-8.31h10.63v-7.64h10.63v9.54c-8.8 0-15.95 6.47-15.95 15.27z" sodipodi:nodetypes="cccccccccc" inkscape:connector-curvature="0" transform="matrix(.40618 0 0 -.39281 -246.01 331.6)"/>
      <path id="path931" style="fill-rule:evenodd;stroke-width:1pt;fill:#004e00" d="m437.6 273.72h-15.95v-15.06c8.81 0 15.95 6.75 15.95 15.06z" sodipodi:nodetypes="cccc" inkscape:connector-curvature="0" transform="matrix(.40618 0 0 .39819 -238.82 113.35)"/>
      <path id="path932" style="fill-rule:evenodd;stroke-width:1pt;fill:#980000" d="m437.6 273.72h-15.95v-15.06c8.81 0 15.95 6.75 15.95 15.06z" sodipodi:nodetypes="cccc" inkscape:connector-curvature="0" transform="matrix(.40618 0 0 -.39819 -238.82 331.33)"/>
      <path id="path933" style="fill-rule:evenodd;stroke-width:1pt;fill:#004e00" d="m437.6 273.72h-15.95v-15.06c8.81 0 15.95 6.75 15.95 15.06z" sodipodi:nodetypes="cccc" inkscape:connector-curvature="0" transform="matrix(-.40618 0 0 -.39819 103.72 331.33)"/>
      <path id="path934" style="fill-rule:evenodd;stroke-width:1pt;fill:#980000" d="m437.6 273.72h-15.95v-15.06c8.81 0 15.95 6.75 15.95 15.06z" sodipodi:nodetypes="cccc" inkscape:connector-curvature="0" transform="matrix(-.40618 0 0 .39819 103.72 113.35)"/>
      <path id="path976" style="fill-rule:evenodd;stroke-width:0;fill:#004e00" d="m-83.268 219.68-5.314-3.54-5.316 3.54-5.314-3.54-5.318 3.54v-1.77l3.55-1.77-1.78-1.77v-1.77h1.78l1.768 1.77 1.771-1.77h1.772v1.77l-1.772 1.77 3.543 1.77 3.544-1.77-1.772-1.77v-1.77h1.772l1.772 1.77 1.771-1.77h1.772v1.77l-1.772 1.77 3.543 1.77 3.544-1.77-1.772-1.77v-1.77h1.772l1.772 1.77 1.771-1.77h1.772v1.77l-1.772 1.77 3.543 1.77v1.77l-5.314-3.54-5.316 3.54z" sodipodi:nodetypes="ccccccccccccccccccccccccccccccccccccccc" inkscape:connector-curvature="0" transform="matrix(1.24,0,0,1,42.52,24.804)"/>
      <path id="path982" style="fill-rule:evenodd;stroke-width:0;fill:#004e00" d="m-83.268 219.68-5.314-3.54-5.316 3.54-5.314-3.54-5.318 3.54v-1.77l3.55-1.77-1.78-1.77v-1.77h1.78l1.768 1.77 1.771-1.77h1.772v1.77l-1.772 1.77 3.543 1.77 3.544-1.77-1.772-1.77v-1.77h1.772l1.772 1.77 1.771-1.77h1.772v1.77l-1.772 1.77 3.543 1.77 3.544-1.77-1.772-1.77v-1.77h1.772l1.772 1.77 1.771-1.77h1.772v1.77l-1.772 1.77 3.543 1.77v1.77l-5.314-3.54-5.316 3.54z" sodipodi:nodetypes="ccccccccccccccccccccccccccccccccccccccc" inkscape:connector-curvature="0" transform="matrix(1.24,0,0,-1,42.52,419.88)"/>
      <path id="path983" style="fill-rule:evenodd;stroke-width:0;fill:#004e00" d="m-83.268 219.68-5.314-3.54-5.316 3.54-5.314-3.54-5.318 3.54v-1.77l3.55-1.77-1.78-1.77v-1.77h1.78l1.768 1.77 1.771-1.77h1.772v1.77l-1.772 1.77 3.543 1.77 3.544-1.77-1.772-1.77v-1.77h1.772l1.772 1.77 1.771-1.77h1.772v1.77l-1.772 1.77 3.543 1.77 3.544-1.77-1.772-1.77v-1.77h1.772l1.772 1.77 1.771-1.77h1.772v1.77l-1.772 1.77 3.543 1.77v1.77l-5.314-3.54-5.316 3.54z" sodipodi:nodetypes="ccccccccccccccccccccccccccccccccccccccc" inkscape:connector-curvature="0" transform="matrix(0 .83335 .93002 0 -240.88 296.16)"/>
      <path id="path985" style="fill-rule:evenodd;stroke:#000000;stroke-width:0.4;fill:#004e00" d="m-100.98 177.17-7.09 7.08v26.58l7.09 7.08h31.885l7.087-7.08v-26.58l-7.087-7.08h-31.885zm-1.78-5.32-17.71 17.72v15.94l17.71 17.72h35.437l17.716-17.72v-15.94l-17.716-17.72h-35.437z" sodipodi:nodetypes="cccccccccccccccccc" inkscape:connector-curvature="0" transform="matrix(1.24,0,0,1,38.127,24.804)"/>
      <path id="path996" style="fill-rule:evenodd;stroke:#000000;stroke-width:.25;fill:#e69900" d="m-93.898 147.05 3.544 5.31 3.543-5.31h-7.087z" sodipodi:nodetypes="cccc" inkscape:connector-curvature="0" transform="matrix(.992 0 0 .66666 15.279 146.46)"/>
      <path id="path1001" style="fill-rule:evenodd;stroke:#000000;stroke-width:.25;fill:#e69900" d="m-93.898 147.05 3.544 5.31 3.543-5.31h-7.087z" sodipodi:nodetypes="cccc" inkscape:connector-curvature="0" transform="matrix(.992 0 0 -.66666 15.279 298.23)"/>
      <path id="path1002" style="fill-rule:evenodd;stroke:#000000;stroke-width:.25;fill:#e69900" d="m-93.898 147.05 3.544 5.31 3.543-5.31h-7.087z" sodipodi:nodetypes="cccc" inkscape:connector-curvature="0" transform="matrix(.992 0 0 -.66666 29.339 298.23)"/>
      <path id="path997" style="fill-rule:evenodd;stroke:#000000;stroke-width:.25;fill:#e69900" d="m-93.898 147.05 3.544 5.31 3.543-5.31h-7.087z" sodipodi:nodetypes="cccc" inkscape:connector-curvature="0" transform="matrix(.992 0 0 .66666 29.339 146.46)"/>
      <path id="path1007" style="fill-rule:evenodd;stroke:#000000;stroke-width:.25;fill:#980000" d="m-93.898 147.05 3.544 5.31 3.543-5.31h-7.087z" sodipodi:nodetypes="cccc" inkscape:connector-curvature="0" transform="matrix(.992 0 0 -.66666 8.249 298.23)"/>
      <path id="path1008" style="fill-rule:evenodd;stroke:#000000;stroke-width:.25;fill:#980000" d="m-93.898 147.05 3.544 5.31 3.543-5.31h-7.087z" sodipodi:nodetypes="cccc" inkscape:connector-curvature="0" transform="matrix(.992 0 0 -.66666 22.309 298.23)"/>
      <path id="path1009" style="fill-rule:evenodd;stroke:#000000;stroke-width:.25;fill:#980000" d="m-93.898 147.05 3.544 5.31 3.543-5.31h-7.087z" sodipodi:nodetypes="cccc" inkscape:connector-curvature="0" transform="matrix(.992 0 0 -.66666 36.369 298.23)"/>
      <path id="path992" style="fill-rule:evenodd;stroke:#000000;stroke-width:.25002;fill:#980000" d="m-104.53 180.71 3.55-3.55h-3.55v3.55z" sodipodi:nodetypes="cccc" inkscape:connector-curvature="0" transform="matrix(1.8599,0,0,-1.4999,100.72,510.22)"/>
      <path id="path984" style="fill-rule:evenodd;stroke-width:0;fill:#004e00" d="m-83.268 219.68-5.314-3.54-5.316 3.54-5.314-3.54-5.318 3.54v-1.77l3.55-1.77-1.78-1.77v-1.77h1.78l1.768 1.77 1.771-1.77h1.772v1.77l-1.772 1.77 3.543 1.77 3.544-1.77-1.772-1.77v-1.77h1.772l1.772 1.77 1.771-1.77h1.772v1.77l-1.772 1.77 3.543 1.77 3.544-1.77-1.772-1.77v-1.77h1.772l1.772 1.77 1.771-1.77h1.772v1.77l-1.772 1.77 3.543 1.77v1.77l-5.314-3.54-5.316 3.54z" sodipodi:nodetypes="ccccccccccccccccccccccccccccccccccccccc" inkscape:connector-curvature="0" transform="matrix(0 .83335 -.93002 0 106.23 296.16)"/>
      <path id="path1010" style="fill-rule:evenodd;stroke:#000000;stroke-width:.25;fill:#980000" d="m-76.181 154.13h7.087l1.771 1.78-1.771 1.77h-7.087v-3.55z" sodipodi:nodetypes="cccccc" inkscape:connector-curvature="0" transform="matrix(1.24 0 0 .90002 60.095 78.836)"/>
      <path id="path989" style="fill-rule:evenodd;stroke:#000000;stroke-width:.375;fill:#980000" d="m-99.213 180.71-3.547 3.54v26.58l3.547 3.54h-5.317v-33.66h5.317z" sodipodi:nodetypes="ccccccc" inkscape:connector-curvature="0" transform="matrix(1.24,0,0,1,29.339,24.804)"/>
      <path id="path998" style="fill-rule:evenodd;stroke:#000000;stroke-width:.25;fill:#980000" d="m-93.898 147.05 3.544 5.31 3.543-5.31h-7.087z" sodipodi:nodetypes="cccc" inkscape:connector-curvature="0" transform="matrix(.992 0 0 .66666 8.249 146.46)"/>
      <path id="path999" style="fill-rule:evenodd;stroke:#000000;stroke-width:.25;fill:#980000" d="m-93.898 147.05 3.544 5.31 3.543-5.31h-7.087z" sodipodi:nodetypes="cccc" inkscape:connector-curvature="0" transform="matrix(.992 0 0 .66666 22.309 146.46)"/>
      <path id="path1000" style="fill-rule:evenodd;stroke:#000000;stroke-width:.25;fill:#980000" d="m-93.898 147.05 3.544 5.31 3.543-5.31h-7.087z" sodipodi:nodetypes="cccc" inkscape:connector-curvature="0" transform="matrix(.992 0 0 .66666 36.369 146.46)"/>
      <path id="path990" style="fill-rule:evenodd;stroke:#000000;stroke-width:.375;fill:#980000" d="m-99.212 180.71-3.548 3.54v26.58l3.548 3.54h-5.318v-33.66h5.318z" sodipodi:nodetypes="ccccccc" inkscape:connector-curvature="0" transform="matrix(-1.24,0,0,1,-163.98,24.804)"/>
      <path id="path993" style="fill-rule:evenodd;stroke:#000000;stroke-width:.25002;fill:#980000" d="m-104.53 180.71 3.55-3.55h-3.55v3.55z" sodipodi:nodetypes="cccc" inkscape:connector-curvature="0" transform="matrix(-1.8599,0,0,-1.4999,-235.37,510.22)"/>
      <path id="path994" style="fill-rule:evenodd;stroke:#000000;stroke-width:.25002;fill:#980000" d="m-104.53 180.71 3.55-3.55h-3.55v3.55z" sodipodi:nodetypes="cccc" inkscape:connector-curvature="0" transform="matrix(-1.8599,0,0,1.4999,-235.37,-65.534)"/>
      <path id="path991" style="fill-rule:evenodd;stroke:#000000;stroke-width:.25002;fill:#980000" d="m-104.53 180.71 3.55-3.55h-3.55v3.55z" sodipodi:nodetypes="cccc" inkscape:connector-curvature="0" transform="matrix(1.8599,0,0,1.4999,100.72,-65.534)"/>
      <path id="path981" style="fill-rule:evenodd;stroke:#000000;stroke-width:0.4;fill:#004e00" d="m-100.98 177.17-7.09 7.08v26.58l7.09 7.08h31.885l7.087-7.08v-26.58l-7.087-7.08h-31.885zm0-1.78-8.86 8.86v26.58l8.86 8.85h31.885l8.858-8.85v-26.58l-8.859-8.86h-31.884z" sodipodi:nodetypes="cccccccccccccccccc" inkscape:connector-curvature="0" transform="matrix(1.24,0,0,1,38.127,24.804)"/>
      <path id="path1011" style="fill-rule:evenodd;stroke:#000000;stroke-width:.25;fill:#e69900" d="m-76.181 154.13h7.087l1.771 1.78-1.771 1.77h-7.087v-3.55z" sodipodi:nodetypes="cccccc" inkscape:connector-curvature="0" transform="matrix(1.24 0 0 .90008 60.094 82.014)"/>
      <path id="path1012" style="fill-rule:evenodd;stroke:#000000;stroke-width:.25;fill:#980000" d="m-76.181 154.13h7.087l1.771 1.78-1.771 1.77h-7.087v-3.55z" sodipodi:nodetypes="cccccc" inkscape:connector-curvature="0" transform="matrix(1.24 0 0 .90002 60.095 85.214)"/>
      <path id="path1013" style="fill-rule:evenodd;stroke:#000000;stroke-width:.25;fill:#e69900" d="m-76.181 154.13h7.087l1.771 1.78-1.771 1.77h-7.087v-3.55z" sodipodi:nodetypes="cccccc" inkscape:connector-curvature="0" transform="matrix(1.24 0 0 .90008 60.095 88.392)"/>
      <path id="path1025" style="fill-rule:evenodd;stroke:#000000;stroke-width:.25;fill:#e69900" d="m-76.181 154.13h7.087l1.771 1.78-1.771 1.77h-7.087v-3.55z" sodipodi:nodetypes="cccccc" inkscape:connector-curvature="0" transform="matrix(1.24 0 0 .90008 60.095 75.636)"/>
      <path id="path1027" style="fill-rule:evenodd;stroke:#000000;stroke-width:.25;fill:#980000" d="m-76.181 154.13h7.087l1.771 1.78-1.771 1.77h-7.087v-3.55z" sodipodi:nodetypes="cccccc" inkscape:connector-curvature="0" transform="matrix(-1.24 0 0 .90002 -194.74 78.836)"/>
      <path id="path1028" style="fill-rule:evenodd;stroke:#000000;stroke-width:.25;fill:#e69900" d="m-76.181 154.13h7.087l1.771 1.78-1.771 1.77h-7.087v-3.55z" sodipodi:nodetypes="cccccc" inkscape:connector-curvature="0" transform="matrix(-1.24 0 0 .90008 -194.74 82.015)"/>
      <path id="path1029" style="fill-rule:evenodd;stroke:#000000;stroke-width:.25;fill:#980000" d="m-76.181 154.13h7.087l1.771 1.78-1.771 1.77h-7.087v-3.55z" sodipodi:nodetypes="cccccc" inkscape:connector-curvature="0" transform="matrix(-1.24 0 0 .90002 -194.74 85.214)"/>
      <path id="path1030" style="fill-rule:evenodd;stroke:#000000;stroke-width:.25;fill:#e69900" d="m-76.181 154.13h7.087l1.771 1.78-1.771 1.77h-7.087v-3.55z" sodipodi:nodetypes="cccccc" inkscape:connector-curvature="0" transform="matrix(-1.24 0 0 .90008 -194.74 88.393)"/>
      <path id="path1031" style="fill-rule:evenodd;stroke:#000000;stroke-width:.25;fill:#e69900" d="m-76.181 154.13h7.087l1.771 1.78-1.771 1.77h-7.087v-3.55z" sodipodi:nodetypes="cccccc" inkscape:connector-curvature="0" transform="matrix(-1.24 0 0 .90008 -194.74 75.637)"/>
      <path id="path1037" inkscape:connector-curvature="0" style="fill-rule:evenodd;stroke:#000000;stroke-width:.25;fill:#970000" transform="matrix(1.24,0,0,1,11.764,24.803)" d="m-100.98 178.94v37.2h8.854v8.86h56.693v-8.86h8.858v-37.2h-8.858v-8.86h-56.693v8.86h-8.854zm1.767 1.77v33.66h8.859v8.86h53.149v-8.86h8.859v-33.66h-8.859v-8.86h-53.149v8.86h-8.859z"/>
    </g>
    <g id="g3017" transform="matrix(1.1481,0,0,1.1176,217.32,-7.8161)">
      <path id="path2276" style="fill-rule:evenodd;stroke:#000000;stroke-width:.25;fill:#980000" d="m-28.347 69.094-5.315-7.086v-5.315l-5.315-5.315h-10.629l-8.859-5.315h-28.346l-8.858 5.315h-10.631l-5.31 5.315v5.315l-5.32 7.086v14.174l5.32 7.086v5.315l5.31 5.311h10.631l8.858 5.32h28.347l8.858-5.32h10.63l5.314-5.31v-5.316l5.316-7.086-0.001-14.174z" sodipodi:nodetypes="ccccccccccccccccccccccccc" inkscape:connector-curvature="0" transform="matrix(1.08,0,0,1,-1.2755,-24.803)"/>
      <path id="path1003" style="fill-rule:evenodd;stroke-width:1pt;fill:#e69900" d="m345.47 251.58v5.31l5.32 7.09v5.31l5.31 5.32h10.63l8.86 5.31h12.4v-28.34h-42.52z" sodipodi:nodetypes="cccccccccc" inkscape:connector-curvature="0" transform="matrix(1.08,0,0,1,-498.74,-200.2)"/>
      <path id="path2255" style="fill-rule:evenodd;stroke-width:1pt;fill:#980000" d="m328.36 268.9-8.41 7.97h-5.03l1.68 2.65-3.36 5.31 1.68 2.66 5.03-2.66 1.67 2.66 0.78-7.09 9.28-8.4-3.32-3.1z" sodipodi:nodetypes="ccccccccccc" inkscape:connector-curvature="0" transform="matrix(.83045 0 0 .572 -368.56 -90.034)"/>
      <path id="path2256" style="fill-rule:evenodd;stroke-width:1pt;fill:#980000" d="m328.36 268.9-8.41 7.97h-5.03l1.68 2.65-3.36 5.31 1.68 2.66 5.03-2.66 1.67 2.66 0.78-7.09 9.28-8.4-3.32-3.1z" sodipodi:nodetypes="ccccccccccc" inkscape:connector-curvature="0" transform="matrix(.83045 0 0 .572 -376.21 -93.577)"/>
      <path id="path2257" style="fill-rule:evenodd;stroke-width:1pt;fill:#980000" d="m328.36 268.9-8.41 7.97h-5.03l1.68 2.65-3.36 5.31 1.68 2.66 5.03-2.66 1.67 2.66 0.78-7.09 9.28-8.4-3.32-3.1z" sodipodi:nodetypes="ccccccccccc" inkscape:connector-curvature="0" transform="matrix(.83045 0 0 .572 -380.04 -100.66)"/>
      <path id="path1004" style="fill-rule:evenodd;stroke-width:1pt;fill:#e69900" d="m345.47 251.58v5.31l5.32 7.09v5.31l5.31 5.32h10.63l8.86 5.31h12.4v-28.34h-42.52z" sodipodi:nodetypes="cccccccccc" inkscape:connector-curvature="0" transform="matrix(-1.08,0,0,-1,339.29,302.96)"/>
      <path id="path3007" style="fill-rule:evenodd;stroke-width:1pt;fill:#980000" d="m-72.638 47.835h3.281l3.806 3.543h6.037l3.28 1.772-1.64 1.772-3.281-1.772h-3.281l-3.28 5.315-4.922-1.772v-3.543h4.922l-4.922-5.315z" sodipodi:nodetypes="ccccccccccccc" inkscape:connector-curvature="0" transform="matrix(-1.08,0,0,-1,-158.17,127.56)"/>
      <path id="path1005" style="fill-rule:evenodd;stroke-width:1pt;fill:#ffffff" d="m345.47 251.58v5.31l5.32 7.09v5.31l5.31 5.32h10.63l8.86 5.31h12.4v-28.34h-42.52z" sodipodi:nodetypes="cccccccccc" inkscape:connector-curvature="0" transform="matrix(1.08,0,0,-1,-498.74,302.96)"/>
      <path id="path3008" style="fill-rule:evenodd;stroke-width:1pt;fill:#980000" d="m-72.638 47.835h3.281l3.806 3.543h6.037l3.28 1.772-1.64 1.772-3.281-1.772h-3.281l-3.28 5.315-4.922-1.772v-3.543h4.922l-4.922-5.315z" sodipodi:nodetypes="ccccccccccccc" inkscape:connector-curvature="0" transform="matrix(-1.08,0,0,1,-158.17,-24.804)"/>
      <path id="path3009" style="fill-rule:evenodd;stroke-width:1pt;fill:#980000" d="m-72.638 47.835h3.281l3.806 3.543h6.037l3.28 1.772-1.64 1.772-3.281-1.772h-3.281l-3.28 5.315-4.922-1.772v-3.543h4.922l-4.922-5.315z" sodipodi:nodetypes="ccccccccccccc" inkscape:connector-curvature="0" transform="matrix(1.08,0,0,1,-1.2754,-24.804)"/>
      <path id="path1006" style="fill-rule:evenodd;stroke-width:1pt;fill:#ffffff" d="m345.47 251.58v5.31l5.32 7.09v5.31l5.31 5.32h10.63l8.86 5.31h12.4v-28.34h-42.52z" sodipodi:nodetypes="cccccccccc" inkscape:connector-curvature="0" transform="matrix(-1.08,0,0,1,339.29,-200.2)"/>
      <path id="path2265" style="fill-rule:evenodd;stroke-width:1pt;fill:#980000" d="m-72.638 47.835h3.281l3.806 3.543h6.037l3.28 1.772-1.64 1.772-3.281-1.772h-3.281l-3.28 5.315-4.922-1.772v-3.543h4.922l-4.922-5.315z" sodipodi:nodetypes="ccccccccccccc" inkscape:connector-curvature="0" transform="matrix(1.08,0,0,-1,-1.2754,127.56)"/>
      <path id="path2253" style="fill-rule:evenodd;stroke-width:1pt;fill:#980000" d="m328.36 268.9-8.41 7.97h-5.03l1.68 2.65-3.36 5.31 1.68 2.66 5.03-2.66 1.67 2.66 0.78-7.09 9.28-8.4-3.32-3.1z" sodipodi:nodetypes="ccccccccccc" inkscape:connector-curvature="0" transform="matrix(.83045 0 0 -.572 -376.21 196.33)"/>
      <path id="path2247" style="fill-rule:evenodd;stroke-width:1pt;fill:#980000" d="m328.36 268.9-8.41 7.97h-5.03l1.68 2.65-3.36 5.31 1.68 2.66 5.03-2.66 1.67 2.66 0.78-7.09 9.28-8.4-3.32-3.1z" sodipodi:nodetypes="ccccccccccc" inkscape:connector-curvature="0" transform="matrix(-.83045 0 0 -.572 209.11 192.79)"/>
      <path id="path2252" style="fill-rule:evenodd;stroke-width:1pt;fill:#980000" d="m328.36 268.9-8.41 7.97h-5.03l1.68 2.65-3.36 5.31 1.68 2.66 5.03-2.66 1.67 2.66 0.78-7.09 9.28-8.4-3.32-3.1z" sodipodi:nodetypes="ccccccccccc" inkscape:connector-curvature="0" transform="matrix(.83045 0 0 -.572 -368.56 192.79)"/>
      <path id="path2254" style="fill-rule:evenodd;stroke-width:1pt;fill:#980000" d="m328.36 268.9-8.41 7.97h-5.03l1.68 2.65-3.36 5.31 1.68 2.66 5.03-2.66 1.67 2.66 0.78-7.09 9.28-8.4-3.32-3.1z" sodipodi:nodetypes="ccccccccccc" inkscape:connector-curvature="0" transform="matrix(.83045 0 0 -.572 -380.04 203.42)"/>
      <path id="path3004" style="fill-rule:evenodd;stroke-width:0;fill:#ffffff" d="m334.75 269.29h1.55l1.56 1.64 1.55-1.64h32.64v22.9h-1.56l1.56 1.63v1.64l-4.67-4.91v-1.63h1.56v1.63h1.55v-1.63l-12.62-7.23h-10.63v-7.08l-4.72-3.68h-3.11l-1.55 1.63 1.55 1.64h-1.55l-3.11-4.91z" sodipodi:nodetypes="cccccccccccccccccccccccc" inkscape:connector-curvature="0" transform="matrix(1.14,0,0,1.0834,-503.85,-240.36)"/>
      <path id="path3005" style="fill-rule:evenodd;stroke-width:0;fill:#e69900" d="m334.75 269.29h1.55l1.56 1.64 1.55-1.64h32.64v22.9h-1.56l1.56 1.63v1.64l-4.67-4.91v-1.63h1.56v1.63h1.55v-1.63l-12.62-7.23h-10.63v-7.08l-4.72-3.68h-3.11l-1.55 1.63 1.55 1.64h-1.55l-3.11-4.91z" sodipodi:nodetypes="cccccccccccccccccccccccc" inkscape:connector-curvature="0" transform="matrix(1.14,0,0,-1.0834,-503.85,343.12)"/>
      <path id="path1015" style="fill-rule:evenodd;stroke-width:0;fill:#004e00" d="m340.16 269.29h31.89v21.26l-14.18-8.86h-10.63v-7.08l-7.08-5.32z" sodipodi:nodetypes="ccccccc" inkscape:connector-curvature="0" transform="matrix(1.08,0,0,1,-481.53,-217.92)"/>
      <path id="path2250" style="fill-rule:evenodd;stroke-width:1pt;fill:#980000" d="m328.36 268.9-8.41 7.97h-5.03l1.68 2.65-3.36 5.31 1.68 2.66 5.03-2.66 1.67 2.66 0.78-7.09 9.28-8.4-3.32-3.1z" sodipodi:nodetypes="ccccccccccc" inkscape:connector-curvature="0" transform="matrix(-.83045 0 0 -.572 216.76 196.33)"/>
      <path id="path2251" style="fill-rule:evenodd;stroke-width:1pt;fill:#980000" d="m328.36 268.9-8.41 7.97h-5.03l1.68 2.65-3.36 5.31 1.68 2.66 5.03-2.66 1.67 2.66 0.78-7.09 9.28-8.4-3.32-3.1z" sodipodi:nodetypes="ccccccccccc" inkscape:connector-curvature="0" transform="matrix(-.83045 0 0 -.572 220.59 203.42)"/>
      <path id="path1016" style="fill-rule:evenodd;stroke-width:0;fill:#ffffff" d="m334.75 269.29h1.55l1.56 1.64 1.55-1.64h32.64v22.9h-1.56l1.56 1.63v1.64l-4.67-4.91v-1.63h1.56v1.63h1.55v-1.63l-12.62-7.23h-10.63v-7.08l-4.72-3.68h-3.11l-1.55 1.63 1.55 1.64h-1.55l-3.11-4.91z" sodipodi:nodetypes="cccccccccccccccccccccccc" inkscape:connector-curvature="0" transform="matrix(-1.14,0,0,-1.0834,344.4,343.12)"/>
      <path id="path1017" style="fill-rule:evenodd;stroke-width:0;fill:#004e00" d="m340.16 269.29h31.89v21.26l-14.18-8.86h-10.63v-7.08l-7.08-5.32z" sodipodi:nodetypes="ccccccc" inkscape:connector-curvature="0" transform="matrix(-1.08,0,0,-1,322.08,320.68)"/>
      <path id="path2258" style="fill-rule:evenodd;stroke-width:1pt;fill:#980000" d="m328.36 268.9-8.41 7.97h-5.03l1.68 2.65-3.36 5.31 1.68 2.66 5.03-2.66 1.67 2.66 0.78-7.09 9.28-8.4-3.32-3.1z" sodipodi:nodetypes="ccccccccccc" inkscape:connector-curvature="0" transform="matrix(-.83045 0 0 .572 209.11 -90.034)"/>
      <path id="path2259" style="fill-rule:evenodd;stroke-width:1pt;fill:#980000" d="m328.36 268.9-8.41 7.97h-5.03l1.68 2.65-3.36 5.31 1.68 2.66 5.03-2.66 1.67 2.66 0.78-7.09 9.28-8.4-3.32-3.1z" sodipodi:nodetypes="ccccccccccc" inkscape:connector-curvature="0" transform="matrix(-.83045 0 0 .572 216.76 -93.577)"/>
      <path id="path2260" style="fill-rule:evenodd;stroke-width:1pt;fill:#980000" d="m328.36 268.9-8.41 7.97h-5.03l1.68 2.65-3.36 5.31 1.68 2.66 5.03-2.66 1.67 2.66 0.78-7.09 9.28-8.4-3.32-3.1z" sodipodi:nodetypes="ccccccccccc" inkscape:connector-curvature="0" transform="matrix(-.83045 0 0 .572 220.59 -100.66)"/>
      <path id="path3003" style="fill-rule:evenodd;stroke-width:0;fill:#e69900" d="m334.75 269.29h1.55l1.56 1.64 1.55-1.64h32.64v22.9h-1.56l1.56 1.63v1.64l-4.67-4.91v-1.63h1.56v1.63h1.55v-1.63l-12.62-7.23h-10.63v-7.08l-4.72-3.68h-3.11l-1.55 1.63 1.55 1.64h-1.55l-3.11-4.91z" sodipodi:nodetypes="cccccccccccccccccccccccc" inkscape:connector-curvature="0" transform="matrix(-1.14,0,0,1.0834,344.4,-240.36)"/>
      <path id="path1019" style="fill-rule:evenodd;stroke-width:0;fill:#980000" d="m340.16 269.29h31.89v21.26l-14.18-8.86h-10.63v-7.08l-7.08-5.32z" sodipodi:nodetypes="ccccccc" inkscape:connector-curvature="0" transform="matrix(-1.08,0,0,1,322.08,-217.92)"/>
      <path id="path1021" style="fill-rule:evenodd;stroke-width:0;fill:#980000" d="m340.16 269.29h31.89v21.26l-14.18-8.86h-10.63v-7.08l-7.08-5.32z" sodipodi:nodetypes="ccccccc" inkscape:connector-curvature="0" transform="matrix(1.08,0,0,-1,-481.53,320.68)"/>
      <path id="path1023" style="fill-rule:evenodd;stroke-width:1pt;fill:#980000" d="m328.36 268.9-8.41 7.97h-5.03l1.68 2.65-3.36 5.31 1.68 2.66 5.03-2.66 1.67 2.66 0.78-7.09 9.28-8.4-3.32-3.1z" sodipodi:nodetypes="ccccccccccc" inkscape:connector-curvature="0" transform="matrix(-1.1419 0 0 -.66735 299.01 230.83)"/>
      <path id="path2244" style="fill-rule:evenodd;stroke-width:1pt;fill:#980000" d="m328.36 268.9-8.41 7.97h-5.03l1.68 2.65-3.36 5.31 1.68 2.66 5.03-2.66 1.67 2.66 0.78-7.09 9.28-8.4-3.32-3.1z" sodipodi:nodetypes="ccccccccccc" inkscape:connector-curvature="0" transform="matrix(1.1419 0 0 .66735 -458.46 -128.08)"/>
      <path id="path2245" style="fill-rule:evenodd;stroke-width:1pt;fill:#004e00" d="m328.36 268.9-8.41 7.97h-5.03l1.68 2.65-3.36 5.31 1.68 2.66 5.03-2.66 1.67 2.66 0.78-7.09 9.28-8.4-3.32-3.1z" sodipodi:nodetypes="ccccccccccc" inkscape:connector-curvature="0" transform="matrix(1.1419 0 0 -.66735 -458.46 230.83)"/>
      <path id="path2246" style="fill-rule:evenodd;stroke-width:1pt;fill:#004e00" d="m328.36 268.9-8.41 7.97h-5.03l1.68 2.65-3.36 5.31 1.68 2.66 5.03-2.66 1.67 2.66 0.78-7.09 9.28-8.4-3.32-3.1z" sodipodi:nodetypes="ccccccccccc" inkscape:connector-curvature="0" transform="matrix(-1.1419 0 0 .66735 299.01 -128.08)"/>
      <path id="path1026" style="fill-rule:evenodd;fill:#ffffff" d="m311.81 217.91 8.86-5.31 8.86 5.31-8.86 5.32-8.86-5.32z" sodipodi:nodetypes="ccccc" inkscape:connector-curvature="0" transform="matrix(1.296,0,0,1.6667,-495.31,-311.81)"/>
      <path id="path3010" style="fill-rule:evenodd;stroke-width:1pt;fill:#980000" d="m-66.076 53.15-1.64-1.772 1.64-1.771h1.64l4.922 7.086h-1.641l-3.281-5.315h-1.64l1.64 1.772-1.64 1.772h-3.281v-1.772h3.281z" sodipodi:nodetypes="ccccccccccccc" inkscape:connector-curvature="0" transform="matrix(-1.08,0,0,-1,-188.29,108.07)"/>
      <path id="path3012" style="fill-rule:evenodd;stroke-width:1pt;fill:#980000" d="m-66.076 53.15-1.64-1.772 1.64-1.771h1.64l4.922 7.086h-1.641l-3.281-5.315h-1.64l1.64 1.772-1.64 1.772h-3.281v-1.772h3.281z" sodipodi:nodetypes="ccccccccccccc" inkscape:connector-curvature="0" transform="matrix(-1.08,0,0,1,-188.29,-5.3154)"/>
      <path id="path3013" style="fill-rule:evenodd;stroke-width:1pt;fill:#980000" d="m-66.076 53.15-1.64-1.772 1.64-1.771h1.64l4.922 7.086h-1.641l-3.281-5.315h-1.64l1.64 1.772-1.64 1.772h-3.281v-1.772h3.281z" sodipodi:nodetypes="ccccccccccccc" inkscape:connector-curvature="0" transform="matrix(1.08,0,0,-1,28.843,108.07)"/>
      <path id="path3014" style="fill-rule:evenodd;stroke-width:1pt;fill:#980000" d="m-66.076 53.15-1.64-1.772 1.64-1.771h1.64l4.922 7.086h-1.641l-3.281-5.315h-1.64l1.64 1.772-1.64 1.772h-3.281v-1.772h3.281z" sodipodi:nodetypes="ccccccccccccc" inkscape:connector-curvature="0" transform="matrix(1.08,0,0,1,28.843,-5.3154)"/>
      <rect id="rect3015" style="fill-rule:evenodd;stroke-width:1pt;fill:#980000" height="14.173" width="3.5433" y="44.291" x="-81.496"/>
      <rect id="rect3016" style="fill-rule:evenodd;fill:#980000" height="7.0866" width="14.173" y="47.835" x="-86.811"/>
    </g>
    <g id="g3091" transform="translate(267.52,-5.3149)">
      <path id="path1088" style="fill-rule:evenodd;stroke:#000000;stroke-width:.065871;fill:#004e00" d="m333.07 170.08-10.63 5.31v8.86l10.63 5.32h10.63l10.63-5.32v-8.86l-10.63-5.31h-10.63z" sodipodi:nodetypes="ccccccccc" inkscape:connector-curvature="0" transform="matrix(3.4444,0,0,3.7273,-1307.3,-277.83)"/>
      <path id="path1101" style="fill-rule:evenodd;stroke-width:1pt;fill:#cc0000" d="m302.95 233.86h1.77v-5.32h3.55v5.32h1.77v-12.4h-1.77v5.31h-3.55v-5.31h-1.77v12.4z" sodipodi:nodetypes="ccccccccccccc" inkscape:connector-curvature="0" transform="matrix(1.2501 0 0 .76401 -561.78 210.59)"/>
      <path id="path1103" style="fill-rule:evenodd;stroke-width:1pt;fill:#cc0000" d="m302.95 233.86h1.77v-5.32h3.55v5.32h1.77v-12.4h-1.77v5.31h-3.55v-5.31h-1.77v12.4z" sodipodi:nodetypes="ccccccccccccc" inkscape:connector-curvature="0" transform="matrix(1.2501 0 0 .76401 -505.68 242.17)"/>
      <path id="path1104" style="fill-rule:evenodd;stroke-width:1pt;fill:#cc0000" d="m302.95 233.86h1.77v-5.32h3.55v5.32h1.77v-12.4h-1.77v5.31h-3.55v-5.31h-1.77v12.4z" sodipodi:nodetypes="ccccccccccccc" inkscape:connector-curvature="0" transform="matrix(1.2501 0 0 .76401 -541.11 194.8)"/>
      <path id="path1105" style="fill-rule:evenodd;stroke-width:1pt;fill:#cc0000" d="m302.95 233.86h1.77v-5.32h3.55v5.32h1.77v-12.4h-1.77v5.31h-3.55v-5.31h-1.77v12.4z" sodipodi:nodetypes="ccccccccccccc" inkscape:connector-curvature="0" transform="matrix(1.2501 0 0 .76401 -508.63 194.8)"/>
      <path id="path1106" style="fill-rule:evenodd;stroke-width:1pt;fill:#cc0000" d="m302.95 233.86h1.77v-5.32h3.55v5.32h1.77v-12.4h-1.77v5.31h-3.55v-5.31h-1.77v12.4z" sodipodi:nodetypes="ccccccccccccc" inkscape:connector-curvature="0" transform="matrix(1.2501 0 0 .76401 -487.97 210.59)"/>
      <path id="path1107" style="fill-rule:evenodd;stroke-width:1pt;fill:#cc0000" d="m302.95 233.86h1.77v-5.32h3.55v5.32h1.77v-12.4h-1.77v5.31h-3.55v-5.31h-1.77v12.4z" sodipodi:nodetypes="ccccccccccccc" inkscape:connector-curvature="0" transform="matrix(1.2501 0 0 .76401 -487.97 226.38)"/>
      <path id="path868" style="fill-rule:evenodd;stroke-width:1pt;fill:#e69900" d="m-205.51 345.47v38.98h53.15v-17.72l-35.44-21.26h-17.71z" sodipodi:nodetypes="cccccc" inkscape:connector-curvature="0" transform="matrix(1 0 0 -.8913 63.779 735.08)"/>
      <path id="path869" style="fill-rule:evenodd;stroke-width:1pt;fill:#e69900" d="m-205.51 345.47v38.98h53.15v-17.72l-35.44-21.26h-17.71z" sodipodi:nodetypes="cccccc" inkscape:connector-curvature="0" transform="matrix(-1 0 0 .8913 -347.24 49.76)"/>
      <path id="path866" style="fill-rule:evenodd;stroke-width:1pt;fill:#ffffff" d="m-205.51 345.47v38.98h53.15v-17.72l-35.44-21.26h-17.71z" sodipodi:nodetypes="cccccc" inkscape:connector-curvature="0" transform="matrix(1 0 0 .8913 63.779 49.76)"/>
      <path id="path870" style="fill-rule:evenodd;stroke-width:1pt;fill:#ffffff" d="m-205.51 345.47v38.98h53.15v-17.72l-35.44-21.26h-17.71z" sodipodi:nodetypes="cccccc" inkscape:connector-curvature="0" transform="matrix(-1 0 0 -.8913 -347.24 735.08)"/>
      <path id="path864" style="fill-rule:evenodd;stroke:#000000;stroke-width:.125;fill:#e69900" d="m-177.16 368.5h21.25l-21.25-10.63v10.63zm24.8-1.77v17.72h-33.66v-14.17h-7.09l-8.86-5.32v-12.4l5.32-5.32h-7.09v17.72h-1.77v-19.49h17.71l35.44 21.26z" sodipodi:nodetypes="cccccccccccccccccc" inkscape:connector-curvature="0" transform="matrix(1 0 0 .8913 63.779 49.761)"/>
      <path id="path1089" style="fill-rule:evenodd;stroke-width:.625;fill:#980000" d="m333.07 176.72v6.2h1.59l3.73 1.78 3.72-1.78h1.59v-6.2h-1.59l-3.72-1.77-3.73 1.77h-1.59z" sodipodi:nodetypes="ccccccccccc" inkscape:connector-curvature="0" transform="matrix(3.3333,0,0,3.5653,-1269.7,-248.7)"/>
      <path id="path871" style="fill-rule:evenodd;stroke:#000000;stroke-width:.125;fill:#e69900" d="m-177.16 368.5h21.25l-21.25-10.63v10.63zm24.8-1.77v17.72h-33.66v-14.17h-7.09l-8.86-5.32v-12.4l5.32-5.32h-7.09v17.72h-1.77v-19.49h17.71l35.44 21.26z" sodipodi:nodetypes="cccccccccccccccccc" inkscape:connector-curvature="0" transform="matrix(-1 0 0 -.8913 -347.24 735.08)"/>
      <path id="path872" style="fill-rule:evenodd;stroke:#000000;stroke-width:.125;fill:#ffffff" d="m-177.16 368.5h21.25l-21.25-10.63v10.63zm24.8-1.77v17.72h-33.66v-14.17h-7.09l-8.86-5.32v-12.4l5.32-5.32h-7.09v17.72h-1.77v-19.49h17.71l35.44 21.26z" sodipodi:nodetypes="cccccccccccccccccc" inkscape:connector-curvature="0" transform="matrix(-1 0 0 .8913 -347.24 49.761)"/>
      <path id="path873" style="fill-rule:evenodd;stroke:#000000;stroke-width:.125;fill:#ffffff" d="m-177.16 368.5h21.25l-21.25-10.63v10.63zm24.8-1.77v17.72h-33.66v-14.17h-7.09l-8.86-5.32v-12.4l5.32-5.32h-7.09v17.72h-1.77v-19.49h17.71l35.44 21.26z" sodipodi:nodetypes="cccccccccccccccccc" inkscape:connector-curvature="0" transform="matrix(1 0 0 -.8913 63.78 735.08)"/>
      <path id="path1102" style="fill-rule:evenodd;stroke-width:1pt;fill:#980000" d="m302.95 233.86h1.77v-5.32h3.55v5.32h1.77v-12.4h-1.77v5.31h-3.55v-5.31h-1.77v12.4z" sodipodi:nodetypes="ccccccccccccc" inkscape:connector-curvature="0" transform="matrix(1.2501 0 0 .89135 -562.96 196.61)"/>
      <path id="path1100" style="fill-rule:evenodd;stroke-width:1pt;fill:#980000" d="m302.95 233.86h1.77v-5.32h3.55v5.32h1.77v-12.4h-1.77v5.31h-3.55v-5.31h-1.77v12.4z" sodipodi:nodetypes="ccccccccccccc" inkscape:connector-curvature="0" transform="matrix(1.2501 0 0 .89135 -541.71 212.4)"/>
      <path id="path874" style="fill-rule:evenodd;stroke-width:1pt;fill:#980000" d="m302.95 233.86h1.77v-5.32h3.55v5.32h1.77v-12.4h-1.77v5.31h-3.55v-5.31h-1.77v12.4z" sodipodi:nodetypes="ccccccccccccc" inkscape:connector-curvature="0" transform="matrix(1.2501 0 0 -.89134 -562.96 588.24)"/>
      <path id="path876" style="fill-rule:evenodd;stroke-width:1pt;fill:#980000" d="m302.95 233.86h1.77v-5.32h3.55v5.32h1.77v-12.4h-1.77v5.31h-3.55v-5.31h-1.77v12.4z" sodipodi:nodetypes="ccccccccccccc" inkscape:connector-curvature="0" transform="matrix(1.2501 0 0 -.89135 -541.71 572.45)"/>
      <path id="path877" style="fill-rule:evenodd;stroke-width:1pt;fill:#980000" d="m302.95 233.86h1.77v-5.32h3.55v5.32h1.77v-12.4h-1.77v5.31h-3.55v-5.31h-1.77v12.4z" sodipodi:nodetypes="ccccccccccccc" inkscape:connector-curvature="0" transform="matrix(1.2501 0 0 .89135 -508.04 212.4)"/>
      <path id="path878" style="fill-rule:evenodd;stroke-width:1pt;fill:#980000" d="m302.95 233.86h1.77v-5.32h3.55v5.32h1.77v-12.4h-1.77v5.31h-3.55v-5.31h-1.77v12.4z" sodipodi:nodetypes="ccccccccccccc" inkscape:connector-curvature="0" transform="matrix(1.2501 0 0 .89135 -486.78 182.39)"/>
      <path id="path880" style="fill-rule:evenodd;stroke-width:1pt;fill:#980000" d="m302.95 233.86h1.77v-5.32h3.55v5.32h1.77v-12.4h-1.77v5.31h-3.55v-5.31h-1.77v12.4z" sodipodi:nodetypes="ccccccccccccc" inkscape:connector-curvature="0" transform="matrix(1.2501 0 0 .89135 -508.04 212.4)"/>
      <path id="path881" style="fill-rule:evenodd;stroke-width:1pt;fill:#980000" d="m302.95 233.86h1.77v-5.32h3.55v5.32h1.77v-12.4h-1.77v5.31h-3.55v-5.31h-1.77v12.4z" sodipodi:nodetypes="ccccccccccccc" inkscape:connector-curvature="0" transform="matrix(1.2501 0 0 .89135 -508.04 212.4)"/>
      <path id="path882" style="fill-rule:evenodd;stroke-width:1pt;fill:#980000" d="m302.95 233.86h1.77v-5.32h3.55v5.32h1.77v-12.4h-1.77v5.31h-3.55v-5.31h-1.77v12.4z" sodipodi:nodetypes="ccccccccccccc" inkscape:connector-curvature="0" transform="matrix(1.2501 0 0 .89135 -486.78 196.6)"/>
      <path id="path892" style="fill-rule:evenodd;stroke-width:1pt;fill:#980000" d="m302.95 233.86h1.77v-5.32h3.55v5.32h1.77v-12.4h-1.77v5.31h-3.55v-5.31h-1.77v12.4z" sodipodi:nodetypes="ccccccccccccc" inkscape:connector-curvature="0" transform="matrix(1.2501 0 0 .89135 -508.04 166.6)"/>
      <path id="path3090" style="fill-rule:evenodd;stroke-width:1.2469;fill:#004e00" d="m-154.13 334.84 7.08-7.08h3.55v3.54h-3.55v1.77h5.32v-7.09h-5.32v-5.31h-7.08v5.31h1.77v-3.54h3.54v3.54l-7.08 7.09-7.09-7.09v-3.54h3.54v3.54h1.77v-5.31h-7.08v5.31h-5.32v7.09h5.32v-1.77h-3.55v-3.54h3.55l7.08 7.08-7.08 7.09h-3.55v-3.55h3.55v-1.77h-5.32v7.09h5.32v5.31l7.08 0.01v-5.32h-1.77v3.54h-3.54v-3.54l7.08-7.09 7.09 7.09v3.54h-3.54v-3.54h-1.77v5.32h7.08v-5.32h5.32v-7.09h-5.32v1.78h3.55v3.54h-3.55l-7.08-7.09z" sodipodi:nodetypes="cccccccccccccccccccccccccccccccccccccccccccccccccccccccccccccccccccc" inkscape:connector-curvature="0" transform="matrix(1 0 0 .81248 14.173 120.37)"/>
    </g>
    <g id="g3152" transform="matrix(1 0 0 .92857 198.43 17.59)">
      <path id="path701" style="fill-rule:evenodd;stroke-width:1pt;fill:#980000" d="m372.05 391.54 3.54-3.55h21.26l15.95-15.94h21.26l15.94 15.94h21.26l3.54 3.55-3.54 3.54h-21.26l-15.94 15.94h-21.26l-15.95-15.94h-21.26l-3.54-3.54z" sodipodi:nodetypes="ccccccccccccccc" inkscape:connector-curvature="0" transform="matrix(.96774 0 0 1.0526 -482.4 -277.85)"/>
      <path id="path3151" style="fill-rule:evenodd;stroke:#000000;stroke-width:.27174;fill:#980000" d="m372.05 391.54 1.9-1.95h22.83l17.13-19.49h19.03l17.12 19.49h22.84l1.9 1.95-1.9 1.94h-22.84l-15.22 17.54h-22.83l-15.23-17.54h-22.83l-1.9-1.94z" sodipodi:nodetypes="ccccccccccccccc" inkscape:connector-curvature="0" transform="matrix(.93104 0 0 .90908 -466.86 -221.29)"/>
      <path id="path713" style="fill-rule:evenodd;stroke-width:0;fill:#e69900" d="m428.74 354.33 7.09 7.09-3.55 3.54-1.77-1.77h-1.77v1.77l1.77 1.77h3.55l3.54-3.54v-3.54l-7.09-7.09 7.09-7.09v-3.54l-3.54-3.54h-3.55l-1.77 1.77v1.77h1.77l1.77-1.77 3.55 3.54-7.09 7.09-7.09-7.09 7.09-7.08v-1.78h-1.77l-7.09 7.09-7.08-7.09h-1.78v1.78l7.09 7.08-7.09 7.09-7.08-7.09 3.54-3.54 1.77 1.77h1.77v-1.77l-1.77-1.77h-3.54l-3.55 3.54v3.54l7.09 7.09-7.09 7.09v3.54l3.55 3.54h3.54l1.77-1.77v-1.77h-1.77l-1.77 1.77-3.54-3.54 7.08-7.09 7.09 7.09-7.09 7.09v1.77h1.78l7.08-7.09 7.09 7.09h1.77v-1.77l-7.09-7.09 7.09-7.09zm-8.86-8.86-7.08 7.09 7.08 7.09 7.09-7.09-7.09-7.09z" sodipodi:nodetypes="cccccccccccccccccccccccccccccccccccccccccccccccccccccccccccccccccc" inkscape:connector-curvature="0" transform="matrix(.96774 0 0 1.0526 -478.98 -236.82)"/>
      <path id="path714" style="fill-rule:evenodd;stroke-width:1pt;fill:#e69900" d="m412.8 411.02v14.18l1.77-1.78 1.77 1.78 1.77-1.78 1.77 1.78 1.77-1.78 1.77 1.78 1.78-1.78 1.77 1.78 1.77-1.78 1.77 1.78 1.77-1.78 1.78 1.78v-14.18h-21.26z" sodipodi:nodetypes="cccccccccccccccc" inkscape:connector-curvature="0" transform="matrix(.96774 0 0 1.0526 -482.4 -277.85)"/>
      <path id="path715" style="fill-rule:evenodd;stroke-width:1pt;fill:#e69900" d="m412.8 411.02v14.18l1.77-1.78 1.77 1.78 1.77-1.78 1.77 1.78 1.77-1.78 1.77 1.78 1.78-1.78 1.77 1.78 1.77-1.78 1.77 1.78 1.77-1.78 1.78 1.78v-14.18h-21.26z" sodipodi:nodetypes="cccccccccccccccc" inkscape:connector-curvature="0" transform="matrix(-.96774 0 0 -1.0526 337.13 546.43)"/>
      <path id="path716" style="fill-rule:evenodd;stroke-width:1pt;fill:#e69900" d="m419.88 411.02v14.18l1.77-1.78 1.77 1.78 1.78-1.78 1.77 1.78 1.77-1.78 1.77 1.78 1.77-1.78 1.78 1.78v-14.18h-14.18z" sodipodi:nodetypes="cccccccccccc" inkscape:connector-curvature="0" transform="matrix(-.96774 0 0 -1.0526 373.13 563.22)"/>
      <path id="path717" style="fill-rule:evenodd;stroke-width:1pt;fill:#e69900" d="m419.88 411.02v14.18l1.77-1.78 1.77 1.78 1.78-1.78 1.77 1.78 1.77-1.78 1.77 1.78 1.77-1.78 1.78 1.78v-14.18h-14.18z" sodipodi:nodetypes="cccccccccccc" inkscape:connector-curvature="0" transform="matrix(-.96774 0 0 -1.0526 307.98 563.22)"/>
      <path id="path718" style="fill-rule:evenodd;stroke-width:1pt;fill:#e69900" d="m419.88 411.02v14.18l1.77-1.78 1.77 1.78 1.78-1.78 1.77 1.78 1.77-1.78 1.77 1.78 1.77-1.78 1.78 1.78v-14.18h-14.18z" sodipodi:nodetypes="cccccccccccc" inkscape:connector-curvature="0" transform="matrix(-.96774 0 0 1.0526 373.13 -294.63)"/>
      <path id="path719" style="fill-rule:evenodd;stroke-width:1pt;fill:#e69900" d="m419.88 411.02v14.18l1.77-1.78 1.77 1.78 1.78-1.78 1.77 1.78 1.77-1.78 1.77 1.78 1.77-1.78 1.78 1.78v-14.18h-14.18z" sodipodi:nodetypes="cccccccccccc" inkscape:connector-curvature="0" transform="matrix(-.96774 0 0 1.0526 307.98 -294.63)"/>
      <path id="path721" style="fill-rule:evenodd;stroke-width:1pt;fill:#004e00" d="m412.8 411.02-0.01 8.86 1.78-1.77 1.77 1.77 1.77-1.77 1.77 1.77 1.77-1.77 1.77 1.77 1.78-1.77 1.77 1.77 1.77-1.77v-23.03l-15.94 15.94z" sodipodi:nodetypes="ccccccccccccc" inkscape:connector-curvature="0" transform="matrix(.96774 0 0 1.0526 -461.83 -277.85)"/>
      <path id="path722" style="fill-rule:evenodd;stroke-width:1pt;fill:#004e00" d="m412.8 411.02v8.86l1.77-1.77 1.77 1.77 1.77-1.77 1.77 1.77 1.77-1.77 1.77 1.77 1.78-1.77 1.77 1.77 1.77-1.77v-23.03l-15.94 15.94z" sodipodi:nodetypes="ccccccccccccc" inkscape:connector-curvature="0" transform="matrix(-.96774 0 0 1.0526 316.55 -277.85)"/>
      <path id="path723" style="fill-rule:evenodd;stroke-width:1pt;fill:#004e00" d="m412.8 411.02-0.01 8.86 1.78-1.77 1.77 1.77 1.77-1.77 1.77 1.77 1.77-1.77 1.77 1.77 1.78-1.77 1.77 1.77 1.77-1.77v-23.03l-15.94 15.94z" sodipodi:nodetypes="ccccccccccccc" inkscape:connector-curvature="0" transform="matrix(-.96774 0 0 -1.0526 316.55 546.43)"/>
      <path id="path724" style="fill-rule:evenodd;stroke-width:1pt;fill:#004e00" d="m412.8 411.02-0.01 8.86 1.78-1.77 1.77 1.77 1.77-1.77 1.77 1.77 1.77-1.77 1.77 1.77 1.78-1.77 1.77 1.77 1.77-1.77v-23.03l-15.94 15.94z" sodipodi:nodetypes="ccccccccccccc" inkscape:connector-curvature="0" transform="matrix(.96774 0 0 -1.0526 -461.83 546.43)"/>
      <path id="path740" style="fill-rule:evenodd;stroke-width:1pt;fill:#004e00" d="m380.9 414.57-1.77-1.77-1.77 1.77-1.77-1.77-1.77 1.77-1.77-1.77-1.77 1.77-1.78-1.77-1.77 1.77v-28.35l1.77 1.77 1.78-1.77 1.77 1.77 1.77-1.77 1.77 1.77 1.77-1.77 1.77 1.77 1.77-1.77v10.63h-7.08l-3.54 3.54 3.54 3.55h7.08v10.63z" sodipodi:nodetypes="cccccccccccccccccccccccc" inkscape:connector-curvature="0" transform="matrix(.96774 0 0 1.0526 -480.69 -287.17)"/>
      <path id="path741" style="fill-rule:evenodd;stroke-width:1pt;fill:#004e00" d="m380.9 414.57-1.77-1.77-1.77 1.77-1.77-1.77-1.77 1.77-1.77-1.77-1.77 1.77-1.78-1.77-1.77 1.77v-28.35l1.77 1.77 1.78-1.77 1.77 1.77 1.77-1.77 1.77 1.77 1.77-1.77 1.77 1.77 1.77-1.77v10.63h-7.08l-3.54 3.54 3.54 3.55h7.08v10.63z" sodipodi:nodetypes="cccccccccccccccccccccccc" inkscape:connector-curvature="0" transform="matrix(-.96774 0 0 1.0526 335.41 -287.17)"/>
      <path id="path745" style="fill-rule:evenodd;stroke-width:1pt;fill:#ffffff" d="m357.87 396.85s-3.54 3.54-3.54 5.31c-0.07 1.66 3.78 5.36 5.32 5.32 2 0.04 5.31-3.54 5.31-5.32 0-1.77-3.54-5.31-3.54-5.31v-7.09s7.69 12.19 7.69 6.87c0-3.81-7.69-10.41-7.69-10.41h-3.55s-7.69 7.73-7.69 10.41c0 5.32 7.69-6.87 7.69-6.87v7.09z" sodipodi:nodetypes="cccccccccccc" inkscape:connector-curvature="0" transform="matrix(.40322 0 0 .41595 -235.66 -9.0922)"/>
      <path id="path753" style="fill-rule:evenodd;stroke-width:1pt;fill:#980000" d="m357.87 396.85s-3.54 3.54-3.54 5.31c-0.07 1.66 3.78 5.36 5.32 5.32 2 0.04 5.31-3.54 5.31-5.32 0-1.77-3.54-5.31-3.54-5.31v-7.09s6.27 11.6 6.27 6.28c0-3.44-6.27-9.82-6.27-9.82h-3.55s-7.24 7.99-6.27 9.82c0 5.32 6.27-6.28 6.27-6.28v7.09z" sodipodi:nodetypes="cccccccccccc" inkscape:connector-curvature="0" transform="matrix(.48387 0 0 .58233 -246.66 -69.429)"/>
      <path id="path758" sodipodi:rx="3.543304" sodipodi:ry="1.771652" style="fill-rule:evenodd;stroke-width:1pt;fill:#004e00" sodipodi:type="arc" d="m407.48 391.54c0 0.97846-1.5864 1.7716-3.5433 1.7716s-3.5433-0.79319-3.5433-1.7716c0-0.97846 1.5864-1.7716 3.5433-1.7716s3.5433 0.79319 3.5433 1.7716z" transform="matrix(.96774 0 0 1.0526 -482.4 -277.85)" sodipodi:cy="391.5354" sodipodi:cx="403.93701"/>
      <path id="path759" sodipodi:rx="3.543304" sodipodi:ry="1.771652" style="fill-rule:evenodd;stroke-width:1pt;fill:#004e00" sodipodi:type="arc" d="m407.48 391.54c0 0.97846-1.5864 1.7716-3.5433 1.7716s-3.5433-0.79319-3.5433-1.7716c0-0.97846 1.5864-1.7716 3.5433-1.7716s3.5433 0.79319 3.5433 1.7716z" transform="matrix(.96774 0 0 1.0526 -463.54 -277.85)" sodipodi:cy="391.5354" sodipodi:cx="403.93701"/>
      <path id="path760" sodipodi:rx="3.543304" sodipodi:ry="1.771652" style="fill-rule:evenodd;stroke-width:1pt;fill:#004e00" sodipodi:type="arc" d="m407.48 391.54c0 0.97846-1.5864 1.7716-3.5433 1.7716s-3.5433-0.79319-3.5433-1.7716c0-0.97846 1.5864-1.7716 3.5433-1.7716s3.5433 0.79319 3.5433 1.7716z" transform="matrix(.96774 0 0 1.0526 -444.69 -277.85)" sodipodi:cy="391.5354" sodipodi:cx="403.93701"/>
      <path id="path1819" style="fill-rule:evenodd;stroke-width:1pt;fill:#ffffff" d="m357.87 396.85s-3.54 3.54-3.54 5.31c-0.07 1.66 3.78 5.36 5.32 5.32 2 0.04 5.31-3.54 5.31-5.32 0-1.77-3.54-5.31-3.54-5.31v-7.09s7.69 12.19 7.69 6.87c0-3.81-7.69-10.41-7.69-10.41h-3.55s-7.69 7.73-7.69 10.41c0 5.32 7.69-6.87 7.69-6.87v7.09z" sodipodi:nodetypes="cccccccccccc" inkscape:connector-curvature="0" transform="matrix(.40322 0 0 -.41595 -236.02 277.83)"/>
      <path id="path1820" style="fill-rule:evenodd;stroke-width:1pt;fill:#980000" d="m357.87 396.85s-3.54 3.54-3.54 5.31c-0.07 1.66 3.78 5.36 5.32 5.32 2 0.04 5.31-3.54 5.31-5.32 0-1.77-3.54-5.31-3.54-5.31v-7.09s6.27 11.6 6.27 6.28c0-3.44-6.27-9.82-6.27-9.82h-3.55s-7.24 7.99-6.27 9.82c0 5.32 6.27-6.28 6.27-6.28v7.09z" sodipodi:nodetypes="cccccccccccc" inkscape:connector-curvature="0" transform="matrix(.48387 0 0 -.58233 -247.02 338.16)"/>
      <path id="path1821" style="fill-rule:evenodd;stroke-width:1pt;fill:#ffffff" d="m357.87 396.85s-3.54 3.54-3.54 5.31c-0.07 1.66 3.78 5.36 5.32 5.32 2 0.04 5.31-3.54 5.31-5.32 0-1.77-3.54-5.31-3.54-5.31v-7.09s7.69 12.19 7.69 6.87c0-3.81-7.69-10.41-7.69-10.41h-3.55s-7.69 7.73-7.69 10.41c0 5.32 7.69-6.87 7.69-6.87v7.09z" sodipodi:nodetypes="cccccccccccc" inkscape:connector-curvature="0" transform="matrix(.40322 0 0 .41595 -199.16 -9.0922)"/>
      <path id="path1822" style="fill-rule:evenodd;stroke-width:1pt;fill:#ffffff" d="m357.87 396.85s-3.54 3.54-3.54 5.31c-0.07 1.66 3.78 5.36 5.32 5.32 2 0.04 5.31-3.54 5.31-5.32 0-1.77-3.54-5.31-3.54-5.31v-7.09s7.69 12.19 7.69 6.87c0-3.81-7.69-10.41-7.69-10.41h-3.55s-7.69 7.73-7.69 10.41c0 5.32 7.69-6.87 7.69-6.87v7.09z" sodipodi:nodetypes="cccccccccccc" inkscape:connector-curvature="0" transform="matrix(.40322 0 0 -.41595 -199.52 277.83)"/>
      <path id="path1823" style="fill-rule:evenodd;stroke-width:1pt;fill:#980000" d="m357.87 396.85s-3.54 3.54-3.54 5.31c-0.07 1.66 3.78 5.36 5.32 5.32 2 0.04 5.31-3.54 5.31-5.32 0-1.77-3.54-5.31-3.54-5.31v-7.09s6.27 11.6 6.27 6.28c0-3.44-6.27-9.82-6.27-9.82h-3.55s-7.24 7.99-6.27 9.82c0 5.32 6.27-6.28 6.27-6.28v7.09z" sodipodi:nodetypes="cccccccccccc" inkscape:connector-curvature="0" transform="matrix(.53608 0 0 .39023 -298.12 -9.2701)"/>
      <path id="path1824" style="fill-rule:evenodd;stroke-width:1pt;fill:#980000" d="m357.87 396.85s-3.54 3.54-3.54 5.31c-0.07 1.66 3.78 5.36 5.32 5.32 2 0.04 5.31-3.54 5.31-5.32 0-1.77-3.54-5.31-3.54-5.31v-7.09s6.27 11.6 6.27 6.28c0-3.44-6.27-9.82-6.27-9.82h-3.55s-7.24 7.99-6.27 9.82c0 5.32 6.27-6.28 6.27-6.28v7.09z" sodipodi:nodetypes="cccccccccccc" inkscape:connector-curvature="0" transform="matrix(.53608 0 0 -.39022 -298.52 279.33)"/>
      <path id="path1825" style="fill-rule:evenodd;stroke-width:1pt;fill:#980000" d="m357.87 396.85s-3.54 3.54-3.54 5.31c-0.07 1.66 3.78 5.36 5.32 5.32 2 0.04 5.31-3.54 5.31-5.32 0-1.77-3.54-5.31-3.54-5.31v-7.09s6.27 11.6 6.27 6.28c0-3.44-6.27-9.82-6.27-9.82h-3.55s-7.24 7.99-6.27 9.82c0 5.32 6.27-6.28 6.27-6.28v7.09z" sodipodi:nodetypes="cccccccccccc" inkscape:connector-curvature="0" transform="matrix(.53608 0 0 .39023 -232.27 -9.7121)"/>
      <path id="path1826" style="fill-rule:evenodd;stroke-width:1pt;fill:#980000" d="m357.87 396.85s-3.54 3.54-3.54 5.31c-0.07 1.66 3.78 5.36 5.32 5.32 2 0.04 5.31-3.54 5.31-5.32 0-1.77-3.54-5.31-3.54-5.31v-7.09s6.27 11.6 6.27 6.28c0-3.44-6.27-9.82-6.27-9.82h-3.55s-7.24 7.99-6.27 9.82c0 5.32 6.27-6.28 6.27-6.28v7.09z" sodipodi:nodetypes="cccccccccccc" inkscape:connector-curvature="0" transform="matrix(.53608 0 0 -.39022 -232.67 278.89)"/>
      <path id="path1827" style="fill-rule:evenodd;stroke-width:1pt;fill:#ffffff" d="m354.98 396.41c-1.53 3.07-1.13 4.47-1.13 6.24-0.07 1.65 4.26 4.87 5.8 4.83 2 0.04 5.31-3.54 5.31-5.32 0-1.77 0.08-3.3-0.74-6.35l-2.21 5.18c-2.69-7.35-2.84-7.52-4.43 0.18l-2.6-4.76z" sodipodi:nodetypes="cccccccc" inkscape:connector-curvature="0" transform="matrix(.40322 0 0 -.41595 -263.42 310.25)"/>
      <path id="path1828" style="fill-rule:evenodd;stroke-width:1pt;fill:#ffffff" d="m354.98 396.41c-1.53 3.07-1.13 4.47-1.13 6.24-0.07 1.65 4.26 4.87 5.8 4.83 2 0.04 5.31-3.54 5.31-5.32 0-1.77 0.08-3.3-0.74-6.35l-2.21 5.18c-2.69-7.35-2.84-7.52-4.43 0.18l-2.6-4.76z" sodipodi:nodetypes="cccccccc" inkscape:connector-curvature="0" transform="matrix(.40322 0 0 .41595 -263.36 -40.956)"/>
      <path id="path1829" style="fill-rule:evenodd;stroke-width:1pt;fill:#ffffff" d="m354.98 396.41c-1.53 3.07-1.13 4.47-1.13 6.24-0.07 1.65 4.26 4.87 5.8 4.83 2 0.04 5.31-3.54 5.31-5.32 0-1.77 0.08-3.3-0.74-6.35l-2.21 5.18c-2.69-7.35-2.84-7.52-4.43 0.18l-2.6-4.76z" sodipodi:nodetypes="cccccccc" inkscape:connector-curvature="0" transform="matrix(.40322 0 0 -.41595 -170.94 309.98)"/>
      <path id="path1830" style="fill-rule:evenodd;stroke-width:1pt;fill:#ffffff" d="m354.98 396.41c-1.53 3.07-1.13 4.47-1.13 6.24-0.07 1.65 4.26 4.87 5.8 4.83 2 0.04 5.31-3.54 5.31-5.32 0-1.77 0.08-3.3-0.74-6.35l-2.21 5.18c-2.69-7.35-2.84-7.52-4.43 0.18l-2.6-4.76z" sodipodi:nodetypes="cccccccc" inkscape:connector-curvature="0" transform="matrix(.40322 0 0 .41595 -170.89 -41.232)"/>
      <path id="path1835" style="fill-rule:evenodd;stroke:#000000;stroke-width:.125;fill:#980000" d="m115.16 177.16v-5.31h-15.947v-10.63h-14.174v-3.54h-12.401v-31.89h12.401v-3.55h14.174v-10.63h15.947v-5.31h21.26v5.31h15.94v10.63h14.18v3.55h12.4v31.89h-12.4v3.54h-14.18v10.63h-15.94v5.31h-21.26zm-1.78 1.78v-5.32h-15.939v-10.63h-14.173v-3.54h-12.402v-35.43h12.402v-3.55h14.173v-10.63h15.949v-5.31h24.8v5.31h15.94v10.63h14.18v3.55h12.4v35.43h-12.4v3.54h-14.18v10.63h-15.94v5.32h-24.81z" sodipodi:nodetypes="cccccccccccccccccccccccccccccccccccccccccccccccccccccccccc" inkscape:connector-curvature="0" transform="matrix(1 0 0 .99999 -198.43 -7.0853)"/>
    </g>
  </g>
  <metadata id="metadata293">
    <rdf:RDF>
      <cc:Work>
        <dc:format>image/svg+xml</dc:format>
        <dc:type rdf:resource="http://purl.org/dc/dcmitype/StillImage"/>
        <cc:license rdf:resource="http://creativecommons.org/licenses/publicdomain/"/>
        <dc:publisher>
          <cc:Agent rdf:about="http://openclipart.org/">
            <dc:title>Openclipart</dc:title>
          </cc:Agent>
        </dc:publisher>
      </cc:Work>
      <cc:License rdf:about="http://creativecommons.org/licenses/publicdomain/">
        <cc:permits rdf:resource="http://creativecommons.org/ns#Reproduction"/>
        <cc:permits rdf:resource="http://creativecommons.org/ns#Distribution"/>
        <cc:permits rdf:resource="http://creativecommons.org/ns#DerivativeWorks"/>
      </cc:License>
    </rdf:RDF>
  </metadata>
</svg>
