<svg xmlns="http://www.w3.org/2000/svg" xmlns:xlink="http://www.w3.org/1999/xlink" viewBox="0 0 134.167 84.167" fill="#fff" fill-rule="evenodd" stroke="#000" stroke-linecap="round" stroke-linejoin="round"><style><![CDATA[.B{fill-rule:nonzero}.C{stroke-width:2.006}]]></style><use xlink:href="#A" x="2.083" y="2.083"/><symbol id="A" overflow="visible"><g stroke="none" class="B"><path d="M0 0h129.167v79.167H0z"/><path d="M44.92 10.758h39v45.075h-39z"/><path d="M44.366 31.08c.004 1.872 1.414 3.44 3.275 3.644v.042h32.75v-.042c.136.022.273.035.4.042 2-.047 3.598-1.683 3.598-3.684s-1.597-3.637-3.598-3.684c-.138.006-.275.02-.4.042v-.083c.136.022.273.036.4.042 1.337.032 2.587-.663 3.264-1.816s.678-2.583 0-3.736-1.927-1.848-3.264-1.817a3.6 3.6 0 0 0-.41.042v-.083a3.6 3.6 0 0 0 .41.042c1.985.01 3.62-1.553 3.7-3.536s-1.424-3.674-3.403-3.824-3.722 1.294-3.942 3.267h-.902c-.2-1.862-1.77-3.274-3.644-3.274s-3.444 1.412-3.644 3.274h-.9c-.2-1.862-1.77-3.274-3.644-3.274s-3.444 1.412-3.644 3.274h-.902c-.204-1.858-1.773-3.265-3.643-3.265s-3.44 1.407-3.643 3.265h-.902c-.21-1.915-1.86-3.344-3.786-3.274s-3.47 1.614-3.54 3.54 1.36 3.577 3.274 3.787v.083c-1.858.204-3.265 1.774-3.265 3.643s1.407 3.44 3.265 3.643v.083c-1.86.203-3.27 1.77-3.275 3.642z" fill="#1e50a0"/><path d="M84.485 38.448c-.004-1.872-1.414-3.44-3.275-3.644v-.042H48.458v.042c-.136-.022-.273-.036-.4-.042-2 .048-3.598 1.683-3.598 3.684s1.597 3.637 3.598 3.684c.138-.006.275-.02.4-.042v.083a3.6 3.6 0 0 0-.41-.042c-2 .048-3.598 1.683-3.598 3.684s1.597 3.637 3.598 3.684c.138-.006.275-.02.4-.042v.083c-.136-.022-.273-.036-.4-.042-1.985-.01-3.62 1.553-3.7 3.536S45.77 56.7 47.75 56.86s3.722-1.294 3.942-3.266h.902c.204 1.858 1.774 3.265 3.643 3.265s3.44-1.407 3.643-3.265h.902c.204 1.858 1.774 3.265 3.643 3.265s3.44-1.407 3.643-3.265h.902c.2 1.862 1.77 3.274 3.644 3.274s3.444-1.412 3.644-3.274h.902c.21 1.915 1.86 3.344 3.786 3.274s3.47-1.614 3.54-3.54-1.36-3.577-3.274-3.786v-.083c1.858-.204 3.265-1.773 3.265-3.643s-1.407-3.44-3.265-3.643V42.1c1.86-.203 3.27-1.77 3.275-3.642z" fill="#d22f27"/></g><path d="M64.425 27.823a6.45 6.45 0 0 1-6.242-5.375c-.08.425-.12.857-.12 1.3a6.37 6.37 0 0 0 9.642 5.788 6.37 6.37 0 0 0 3.084-5.788 7 7 0 0 0-.121-1.29 6.45 6.45 0 0 1-6.242 5.375z" stroke="#fff" class="B C"/><g stroke="none" fill="#f1b31c"><path d="M57.562 38.533c.528 0 .956.428.956.956v7.658a.96.96 0 0 1-.957.957.96.96 0 0 1-.957-.957V39.49c0-.528.428-.956.956-.956z" class="B"/><use xlink:href="#C" class="B"/><path d="M53.416 45.712a.96.96 0 0 1 .35-1.308l6.63-3.83a.96.96 0 0 1 1.404 1.077.96.96 0 0 1-.446.581L54.73 46.04a.96.96 0 0 1-1.308-.35zm17.87-7.18c.528 0 .956.428.956.956v7.658c0 .342-.183.658-.48.83s-.66.17-.957 0-.48-.487-.48-.83V39.49c0-.528.428-.956.956-.956z" class="B"/><use xlink:href="#C" x="13.729" y="-0.002" class="B"/><path d="M67.145 45.713a.96.96 0 0 1 .35-1.308l6.63-3.83a.96.96 0 0 1 1.308.35.96.96 0 0 1-.35 1.308l-6.635 3.808a.96.96 0 0 1-1.308-.35z" class="B"/></g><path d="M104.313 42.234c3.967-1.72 7.292-6.667 8.154-7.75 2.117-2.608 4.275-12.983-2.812-19.713a14.93 14.93 0 0 0-3.369-2.346c-6.917-3.646-6.917-1.208-6.917-1.208 1.182.152 2.24.804 2.9 1.79 1.454 1.792 0 1.792-2.9 3.583s-1.458 5.37-2.912 7.163-2.9 1.792-1.454 3.583 6.175-2.808 6.175-2.808l.008-.008a3.82 3.82 0 0 0 2.548 1.025 4.82 4.82 0 0 0 4.323-4.84 1.05 1.05 0 0 1 .771.365c1.452 1.785.146 5.767-10.115 10.704-13.287 6.396-12.667 19.2-11.867 24.13.194 1.205.59 2.368 1.175 3.44a47.77 47.77 0 0 0 1.16 2.008c2.712 5.086 8.063 8.205 13.825 8.056 5.948 0 10.785-5.833 10.913-13.133.002-.175-.015-.348-.025-.52-.28 6.115-4.39 10.97-9.43 10.97-.17 0-.333-.02-.504-.03-.142-.006-.28-.01-.423-.025-4.792-.573-8.533-5.538-8.533-11.58.22-5.768 3.894-10.836 9.308-12.838zm-79.823 0c-3.967-1.72-7.292-6.667-8.154-7.75-2.137-2.63-4.275-12.983 2.813-19.715a14.94 14.94 0 0 1 3.369-2.346c6.917-3.646 6.917-1.208 6.917-1.208a4.16 4.16 0 0 0-2.91 1.79c-1.454 1.792 0 1.792 2.9 3.583s1.458 5.37 2.9 7.16 2.91 1.792 1.458 3.583-6.175-2.808-6.175-2.808l-.008-.008a3.82 3.82 0 0 1-2.548 1.025 4.82 4.82 0 0 1-4.323-4.84 1.05 1.05 0 0 0-.771.365c-1.452 1.785-.146 5.767 10.115 10.702 13.288 6.396 12.667 19.2 11.867 24.13a10.76 10.76 0 0 1-1.175 3.44c-.37.68-.757 1.348-1.16 2.008-2.712 5.086-8.063 8.205-13.825 8.056-5.948 0-10.785-5.833-10.913-13.133-.004-.175.015-.348.025-.52.283 6.115 4.392 10.97 9.43 10.97.17 0 .333-.02.504-.03.142-.006.28-.01.42-.025 4.792-.573 8.533-5.537 8.533-11.58-.22-5.768-3.894-10.836-9.308-12.837z" fill="#9b9b9a" stroke="#9b9b9a" class="B C"/><path d="M16.283 39.192c-1.208-1.742-5.37-7.958-5.494-11.073.02-.333-.218-.626-.548-.675a4.81 4.81 0 0 1-3.573-1.606c-.342-.444-.948-.208-1 .4-.35 4.104-.05 13.033 8.573 16.083a.54.54 0 0 0 .615-.219l1.417-1.98c.193-.28.197-.648.01-.93zm96.07 0c1.208-1.742 5.37-7.958 5.494-11.073-.02-.333.218-.626.548-.675a4.81 4.81 0 0 0 3.573-1.606c.342-.444.948-.208 1 .4.35 4.104.05 13.033-8.573 16.083a.54.54 0 0 1-.614-.219l-1.417-1.98c-.193-.28-.198-.647-.013-.93z" fill="#3f3f3f" stroke="none" class="B"/><path d="M0 0h129.167v79.167H0z" fill="none" stroke-width="4.167"/></symbol><defs ><path id="C" d="M53.416 40.927a.96.96 0 0 1 1.308-.35l6.63 3.83a.96.96 0 0 1 .35 1.308.96.96 0 0 1-1.308.35l-6.63-3.83a.96.96 0 0 1-.35-1.308z"/></defs></svg>